<?xml version="1.0" encoding="utf-8" standalone="no"?>
<!DOCTYPE svg PUBLIC "-//W3C//DTD SVG 1.1//EN"
  "http://www.w3.org/Graphics/SVG/1.1/DTD/svg11.dtd">
<!-- Created with matplotlib (https://matplotlib.org/) -->
<svg height="331.5557pt" version="1.1" viewBox="0 0 416.120937 331.5557" width="416.120937pt" xmlns="http://www.w3.org/2000/svg" xmlns:xlink="http://www.w3.org/1999/xlink">
 <defs>
  <style type="text/css">
*{stroke-linecap:butt;stroke-linejoin:round;}
  </style>
 </defs>
 <g id="figure_1">
  <g id="patch_1">
   <path d="M 0 331.5557 
L 416.120937 331.5557 
L 416.120937 0 
L 0 0 
z
" style="fill:#ffffff;"/>
  </g>
  <g id="axes_1">
   <g id="patch_2">
    <path d="M 51.800938 138.254437 
L 408.920938 138.254437 
L 408.920938 17.798437 
L 51.800938 17.798437 
z
" style="fill:#ffffff;"/>
   </g>
   <g id="matplotlib.axis_1">
    <g id="xtick_1">
     <g id="line2d_1">
      <defs>
       <path d="M 0 0 
L 0 3.5 
" id="md2ecd76fe7" style="stroke:#000000;stroke-width:0.8;"/>
      </defs>
      <g>
       <use style="stroke:#000000;stroke-width:0.8;" x="68.033665" xlink:href="#md2ecd76fe7" y="138.254437"/>
      </g>
     </g>
    </g>
    <g id="xtick_2">
     <g id="line2d_2">
      <g>
       <use style="stroke:#000000;stroke-width:0.8;" x="91.362135" xlink:href="#md2ecd76fe7" y="138.254437"/>
      </g>
     </g>
    </g>
    <g id="xtick_3">
     <g id="line2d_3">
      <g>
       <use style="stroke:#000000;stroke-width:0.8;" x="114.690605" xlink:href="#md2ecd76fe7" y="138.254437"/>
      </g>
     </g>
    </g>
    <g id="xtick_4">
     <g id="line2d_4">
      <g>
       <use style="stroke:#000000;stroke-width:0.8;" x="138.019076" xlink:href="#md2ecd76fe7" y="138.254437"/>
      </g>
     </g>
    </g>
    <g id="xtick_5">
     <g id="line2d_5">
      <g>
       <use style="stroke:#000000;stroke-width:0.8;" x="161.347546" xlink:href="#md2ecd76fe7" y="138.254437"/>
      </g>
     </g>
    </g>
    <g id="xtick_6">
     <g id="line2d_6">
      <g>
       <use style="stroke:#000000;stroke-width:0.8;" x="184.676016" xlink:href="#md2ecd76fe7" y="138.254437"/>
      </g>
     </g>
    </g>
    <g id="xtick_7">
     <g id="line2d_7">
      <g>
       <use style="stroke:#000000;stroke-width:0.8;" x="208.004487" xlink:href="#md2ecd76fe7" y="138.254437"/>
      </g>
     </g>
    </g>
    <g id="xtick_8">
     <g id="line2d_8">
      <g>
       <use style="stroke:#000000;stroke-width:0.8;" x="231.332957" xlink:href="#md2ecd76fe7" y="138.254437"/>
      </g>
     </g>
    </g>
    <g id="xtick_9">
     <g id="line2d_9">
      <g>
       <use style="stroke:#000000;stroke-width:0.8;" x="254.661427" xlink:href="#md2ecd76fe7" y="138.254437"/>
      </g>
     </g>
    </g>
    <g id="xtick_10">
     <g id="line2d_10">
      <g>
       <use style="stroke:#000000;stroke-width:0.8;" x="277.989898" xlink:href="#md2ecd76fe7" y="138.254437"/>
      </g>
     </g>
    </g>
    <g id="xtick_11">
     <g id="line2d_11">
      <g>
       <use style="stroke:#000000;stroke-width:0.8;" x="301.318368" xlink:href="#md2ecd76fe7" y="138.254437"/>
      </g>
     </g>
    </g>
    <g id="xtick_12">
     <g id="line2d_12">
      <g>
       <use style="stroke:#000000;stroke-width:0.8;" x="324.646838" xlink:href="#md2ecd76fe7" y="138.254437"/>
      </g>
     </g>
    </g>
    <g id="xtick_13">
     <g id="line2d_13">
      <g>
       <use style="stroke:#000000;stroke-width:0.8;" x="347.975309" xlink:href="#md2ecd76fe7" y="138.254437"/>
      </g>
     </g>
    </g>
    <g id="xtick_14">
     <g id="line2d_14">
      <g>
       <use style="stroke:#000000;stroke-width:0.8;" x="371.303779" xlink:href="#md2ecd76fe7" y="138.254437"/>
      </g>
     </g>
    </g>
   </g>
   <g id="matplotlib.axis_2">
    <g id="ytick_1">
     <g id="line2d_15">
      <defs>
       <path d="M 0 0 
L -3.5 0 
" id="mb237207855" style="stroke:#000000;stroke-width:0.8;"/>
      </defs>
      <g>
       <use style="stroke:#000000;stroke-width:0.8;" x="51.800938" xlink:href="#mb237207855" y="132.779165"/>
      </g>
     </g>
     <g id="text_1">
      <!-- $\mathdefault{0}$ -->
      <defs>
       <path d="M 31.78125 66.40625 
Q 24.171875 66.40625 20.328125 58.90625 
Q 16.5 51.421875 16.5 36.375 
Q 16.5 21.390625 20.328125 13.890625 
Q 24.171875 6.390625 31.78125 6.390625 
Q 39.453125 6.390625 43.28125 13.890625 
Q 47.125 21.390625 47.125 36.375 
Q 47.125 51.421875 43.28125 58.90625 
Q 39.453125 66.40625 31.78125 66.40625 
z
M 31.78125 74.21875 
Q 44.046875 74.21875 50.515625 64.515625 
Q 56.984375 54.828125 56.984375 36.375 
Q 56.984375 17.96875 50.515625 8.265625 
Q 44.046875 -1.421875 31.78125 -1.421875 
Q 19.53125 -1.421875 13.0625 8.265625 
Q 6.59375 17.96875 6.59375 36.375 
Q 6.59375 54.828125 13.0625 64.515625 
Q 19.53125 74.21875 31.78125 74.21875 
z
" id="DejaVuSans-48"/>
      </defs>
      <g transform="translate(38.400938 136.578384)scale(0.1 -0.1)">
       <use transform="translate(0 0.78125)" xlink:href="#DejaVuSans-48"/>
      </g>
     </g>
    </g>
    <g id="ytick_2">
     <g id="line2d_16">
      <g>
       <use style="stroke:#000000;stroke-width:0.8;" x="51.800938" xlink:href="#mb237207855" y="109.59809"/>
      </g>
     </g>
     <g id="text_2">
      <!-- $\mathdefault{2}$ -->
      <defs>
       <path d="M 19.1875 8.296875 
L 53.609375 8.296875 
L 53.609375 0 
L 7.328125 0 
L 7.328125 8.296875 
Q 12.9375 14.109375 22.625 23.890625 
Q 32.328125 33.6875 34.8125 36.53125 
Q 39.546875 41.84375 41.421875 45.53125 
Q 43.3125 49.21875 43.3125 52.78125 
Q 43.3125 58.59375 39.234375 62.25 
Q 35.15625 65.921875 28.609375 65.921875 
Q 23.96875 65.921875 18.8125 64.3125 
Q 13.671875 62.703125 7.8125 59.421875 
L 7.8125 69.390625 
Q 13.765625 71.78125 18.9375 73 
Q 24.125 74.21875 28.421875 74.21875 
Q 39.75 74.21875 46.484375 68.546875 
Q 53.21875 62.890625 53.21875 53.421875 
Q 53.21875 48.921875 51.53125 44.890625 
Q 49.859375 40.875 45.40625 35.40625 
Q 44.1875 33.984375 37.640625 27.21875 
Q 31.109375 20.453125 19.1875 8.296875 
z
" id="DejaVuSans-50"/>
      </defs>
      <g transform="translate(38.400938 113.397309)scale(0.1 -0.1)">
       <use transform="translate(0 0.78125)" xlink:href="#DejaVuSans-50"/>
      </g>
     </g>
    </g>
    <g id="ytick_3">
     <g id="line2d_17">
      <g>
       <use style="stroke:#000000;stroke-width:0.8;" x="51.800938" xlink:href="#mb237207855" y="86.417015"/>
      </g>
     </g>
     <g id="text_3">
      <!-- $\mathdefault{4}$ -->
      <defs>
       <path d="M 37.796875 64.3125 
L 12.890625 25.390625 
L 37.796875 25.390625 
z
M 35.203125 72.90625 
L 47.609375 72.90625 
L 47.609375 25.390625 
L 58.015625 25.390625 
L 58.015625 17.1875 
L 47.609375 17.1875 
L 47.609375 0 
L 37.796875 0 
L 37.796875 17.1875 
L 4.890625 17.1875 
L 4.890625 26.703125 
z
" id="DejaVuSans-52"/>
      </defs>
      <g transform="translate(38.400938 90.216234)scale(0.1 -0.1)">
       <use transform="translate(0 0.09375)" xlink:href="#DejaVuSans-52"/>
      </g>
     </g>
    </g>
    <g id="ytick_4">
     <g id="line2d_18">
      <g>
       <use style="stroke:#000000;stroke-width:0.8;" x="51.800938" xlink:href="#mb237207855" y="63.23594"/>
      </g>
     </g>
     <g id="text_4">
      <!-- $\mathdefault{6}$ -->
      <defs>
       <path d="M 33.015625 40.375 
Q 26.375 40.375 22.484375 35.828125 
Q 18.609375 31.296875 18.609375 23.390625 
Q 18.609375 15.53125 22.484375 10.953125 
Q 26.375 6.390625 33.015625 6.390625 
Q 39.65625 6.390625 43.53125 10.953125 
Q 47.40625 15.53125 47.40625 23.390625 
Q 47.40625 31.296875 43.53125 35.828125 
Q 39.65625 40.375 33.015625 40.375 
z
M 52.59375 71.296875 
L 52.59375 62.3125 
Q 48.875 64.0625 45.09375 64.984375 
Q 41.3125 65.921875 37.59375 65.921875 
Q 27.828125 65.921875 22.671875 59.328125 
Q 17.53125 52.734375 16.796875 39.40625 
Q 19.671875 43.65625 24.015625 45.921875 
Q 28.375 48.1875 33.59375 48.1875 
Q 44.578125 48.1875 50.953125 41.515625 
Q 57.328125 34.859375 57.328125 23.390625 
Q 57.328125 12.15625 50.6875 5.359375 
Q 44.046875 -1.421875 33.015625 -1.421875 
Q 20.359375 -1.421875 13.671875 8.265625 
Q 6.984375 17.96875 6.984375 36.375 
Q 6.984375 53.65625 15.1875 63.9375 
Q 23.390625 74.21875 37.203125 74.21875 
Q 40.921875 74.21875 44.703125 73.484375 
Q 48.484375 72.75 52.59375 71.296875 
z
" id="DejaVuSans-54"/>
      </defs>
      <g transform="translate(38.400938 67.035159)scale(0.1 -0.1)">
       <use transform="translate(0 0.78125)" xlink:href="#DejaVuSans-54"/>
      </g>
     </g>
    </g>
    <g id="ytick_5">
     <g id="line2d_19">
      <g>
       <use style="stroke:#000000;stroke-width:0.8;" x="51.800938" xlink:href="#mb237207855" y="40.054865"/>
      </g>
     </g>
     <g id="text_5">
      <!-- $\mathdefault{8}$ -->
      <defs>
       <path d="M 31.78125 34.625 
Q 24.75 34.625 20.71875 30.859375 
Q 16.703125 27.09375 16.703125 20.515625 
Q 16.703125 13.921875 20.71875 10.15625 
Q 24.75 6.390625 31.78125 6.390625 
Q 38.8125 6.390625 42.859375 10.171875 
Q 46.921875 13.96875 46.921875 20.515625 
Q 46.921875 27.09375 42.890625 30.859375 
Q 38.875 34.625 31.78125 34.625 
z
M 21.921875 38.8125 
Q 15.578125 40.375 12.03125 44.71875 
Q 8.5 49.078125 8.5 55.328125 
Q 8.5 64.0625 14.71875 69.140625 
Q 20.953125 74.21875 31.78125 74.21875 
Q 42.671875 74.21875 48.875 69.140625 
Q 55.078125 64.0625 55.078125 55.328125 
Q 55.078125 49.078125 51.53125 44.71875 
Q 48 40.375 41.703125 38.8125 
Q 48.828125 37.15625 52.796875 32.3125 
Q 56.78125 27.484375 56.78125 20.515625 
Q 56.78125 9.90625 50.3125 4.234375 
Q 43.84375 -1.421875 31.78125 -1.421875 
Q 19.734375 -1.421875 13.25 4.234375 
Q 6.78125 9.90625 6.78125 20.515625 
Q 6.78125 27.484375 10.78125 32.3125 
Q 14.796875 37.15625 21.921875 38.8125 
z
M 18.3125 54.390625 
Q 18.3125 48.734375 21.84375 45.5625 
Q 25.390625 42.390625 31.78125 42.390625 
Q 38.140625 42.390625 41.71875 45.5625 
Q 45.3125 48.734375 45.3125 54.390625 
Q 45.3125 60.0625 41.71875 63.234375 
Q 38.140625 66.40625 31.78125 66.40625 
Q 25.390625 66.40625 21.84375 63.234375 
Q 18.3125 60.0625 18.3125 54.390625 
z
" id="DejaVuSans-56"/>
      </defs>
      <g transform="translate(38.400938 43.854084)scale(0.1 -0.1)">
       <use transform="translate(0 0.78125)" xlink:href="#DejaVuSans-56"/>
      </g>
     </g>
    </g>
    <g id="text_6">
     <!-- Sum of all trips  -->
     <defs>
      <path d="M 53.515625 70.515625 
L 53.515625 60.890625 
Q 47.90625 63.578125 42.921875 64.890625 
Q 37.9375 66.21875 33.296875 66.21875 
Q 25.25 66.21875 20.875 63.09375 
Q 16.5 59.96875 16.5 54.203125 
Q 16.5 49.359375 19.40625 46.890625 
Q 22.3125 44.4375 30.421875 42.921875 
L 36.375 41.703125 
Q 47.40625 39.59375 52.65625 34.296875 
Q 57.90625 29 57.90625 20.125 
Q 57.90625 9.515625 50.796875 4.046875 
Q 43.703125 -1.421875 29.984375 -1.421875 
Q 24.8125 -1.421875 18.96875 -0.25 
Q 13.140625 0.921875 6.890625 3.21875 
L 6.890625 13.375 
Q 12.890625 10.015625 18.65625 8.296875 
Q 24.421875 6.59375 29.984375 6.59375 
Q 38.421875 6.59375 43.015625 9.90625 
Q 47.609375 13.234375 47.609375 19.390625 
Q 47.609375 24.75 44.3125 27.78125 
Q 41.015625 30.8125 33.5 32.328125 
L 27.484375 33.5 
Q 16.453125 35.6875 11.515625 40.375 
Q 6.59375 45.0625 6.59375 53.421875 
Q 6.59375 63.09375 13.40625 68.65625 
Q 20.21875 74.21875 32.171875 74.21875 
Q 37.3125 74.21875 42.625 73.28125 
Q 47.953125 72.359375 53.515625 70.515625 
z
" id="DejaVuSans-83"/>
      <path d="M 8.5 21.578125 
L 8.5 54.6875 
L 17.484375 54.6875 
L 17.484375 21.921875 
Q 17.484375 14.15625 20.5 10.265625 
Q 23.53125 6.390625 29.59375 6.390625 
Q 36.859375 6.390625 41.078125 11.03125 
Q 45.3125 15.671875 45.3125 23.6875 
L 45.3125 54.6875 
L 54.296875 54.6875 
L 54.296875 0 
L 45.3125 0 
L 45.3125 8.40625 
Q 42.046875 3.421875 37.71875 1 
Q 33.40625 -1.421875 27.6875 -1.421875 
Q 18.265625 -1.421875 13.375 4.4375 
Q 8.5 10.296875 8.5 21.578125 
z
M 31.109375 56 
z
" id="DejaVuSans-117"/>
      <path d="M 52 44.1875 
Q 55.375 50.25 60.0625 53.125 
Q 64.75 56 71.09375 56 
Q 79.640625 56 84.28125 50.015625 
Q 88.921875 44.046875 88.921875 33.015625 
L 88.921875 0 
L 79.890625 0 
L 79.890625 32.71875 
Q 79.890625 40.578125 77.09375 44.375 
Q 74.3125 48.1875 68.609375 48.1875 
Q 61.625 48.1875 57.5625 43.546875 
Q 53.515625 38.921875 53.515625 30.90625 
L 53.515625 0 
L 44.484375 0 
L 44.484375 32.71875 
Q 44.484375 40.625 41.703125 44.40625 
Q 38.921875 48.1875 33.109375 48.1875 
Q 26.21875 48.1875 22.15625 43.53125 
Q 18.109375 38.875 18.109375 30.90625 
L 18.109375 0 
L 9.078125 0 
L 9.078125 54.6875 
L 18.109375 54.6875 
L 18.109375 46.1875 
Q 21.1875 51.21875 25.484375 53.609375 
Q 29.78125 56 35.6875 56 
Q 41.65625 56 45.828125 52.96875 
Q 50 49.953125 52 44.1875 
z
" id="DejaVuSans-109"/>
      <path id="DejaVuSans-32"/>
      <path d="M 30.609375 48.390625 
Q 23.390625 48.390625 19.1875 42.75 
Q 14.984375 37.109375 14.984375 27.296875 
Q 14.984375 17.484375 19.15625 11.84375 
Q 23.34375 6.203125 30.609375 6.203125 
Q 37.796875 6.203125 41.984375 11.859375 
Q 46.1875 17.53125 46.1875 27.296875 
Q 46.1875 37.015625 41.984375 42.703125 
Q 37.796875 48.390625 30.609375 48.390625 
z
M 30.609375 56 
Q 42.328125 56 49.015625 48.375 
Q 55.71875 40.765625 55.71875 27.296875 
Q 55.71875 13.875 49.015625 6.21875 
Q 42.328125 -1.421875 30.609375 -1.421875 
Q 18.84375 -1.421875 12.171875 6.21875 
Q 5.515625 13.875 5.515625 27.296875 
Q 5.515625 40.765625 12.171875 48.375 
Q 18.84375 56 30.609375 56 
z
" id="DejaVuSans-111"/>
      <path d="M 37.109375 75.984375 
L 37.109375 68.5 
L 28.515625 68.5 
Q 23.6875 68.5 21.796875 66.546875 
Q 19.921875 64.59375 19.921875 59.515625 
L 19.921875 54.6875 
L 34.71875 54.6875 
L 34.71875 47.703125 
L 19.921875 47.703125 
L 19.921875 0 
L 10.890625 0 
L 10.890625 47.703125 
L 2.296875 47.703125 
L 2.296875 54.6875 
L 10.890625 54.6875 
L 10.890625 58.5 
Q 10.890625 67.625 15.140625 71.796875 
Q 19.390625 75.984375 28.609375 75.984375 
z
" id="DejaVuSans-102"/>
      <path d="M 34.28125 27.484375 
Q 23.390625 27.484375 19.1875 25 
Q 14.984375 22.515625 14.984375 16.5 
Q 14.984375 11.71875 18.140625 8.90625 
Q 21.296875 6.109375 26.703125 6.109375 
Q 34.1875 6.109375 38.703125 11.40625 
Q 43.21875 16.703125 43.21875 25.484375 
L 43.21875 27.484375 
z
M 52.203125 31.203125 
L 52.203125 0 
L 43.21875 0 
L 43.21875 8.296875 
Q 40.140625 3.328125 35.546875 0.953125 
Q 30.953125 -1.421875 24.3125 -1.421875 
Q 15.921875 -1.421875 10.953125 3.296875 
Q 6 8.015625 6 15.921875 
Q 6 25.140625 12.171875 29.828125 
Q 18.359375 34.515625 30.609375 34.515625 
L 43.21875 34.515625 
L 43.21875 35.40625 
Q 43.21875 41.609375 39.140625 45 
Q 35.0625 48.390625 27.6875 48.390625 
Q 23 48.390625 18.546875 47.265625 
Q 14.109375 46.140625 10.015625 43.890625 
L 10.015625 52.203125 
Q 14.9375 54.109375 19.578125 55.046875 
Q 24.21875 56 28.609375 56 
Q 40.484375 56 46.34375 49.84375 
Q 52.203125 43.703125 52.203125 31.203125 
z
" id="DejaVuSans-97"/>
      <path d="M 9.421875 75.984375 
L 18.40625 75.984375 
L 18.40625 0 
L 9.421875 0 
z
" id="DejaVuSans-108"/>
      <path d="M 18.3125 70.21875 
L 18.3125 54.6875 
L 36.8125 54.6875 
L 36.8125 47.703125 
L 18.3125 47.703125 
L 18.3125 18.015625 
Q 18.3125 11.328125 20.140625 9.421875 
Q 21.96875 7.515625 27.59375 7.515625 
L 36.8125 7.515625 
L 36.8125 0 
L 27.59375 0 
Q 17.1875 0 13.234375 3.875 
Q 9.28125 7.765625 9.28125 18.015625 
L 9.28125 47.703125 
L 2.6875 47.703125 
L 2.6875 54.6875 
L 9.28125 54.6875 
L 9.28125 70.21875 
z
" id="DejaVuSans-116"/>
      <path d="M 41.109375 46.296875 
Q 39.59375 47.171875 37.8125 47.578125 
Q 36.03125 48 33.890625 48 
Q 26.265625 48 22.1875 43.046875 
Q 18.109375 38.09375 18.109375 28.8125 
L 18.109375 0 
L 9.078125 0 
L 9.078125 54.6875 
L 18.109375 54.6875 
L 18.109375 46.1875 
Q 20.953125 51.171875 25.484375 53.578125 
Q 30.03125 56 36.53125 56 
Q 37.453125 56 38.578125 55.875 
Q 39.703125 55.765625 41.0625 55.515625 
z
" id="DejaVuSans-114"/>
      <path d="M 9.421875 54.6875 
L 18.40625 54.6875 
L 18.40625 0 
L 9.421875 0 
z
M 9.421875 75.984375 
L 18.40625 75.984375 
L 18.40625 64.59375 
L 9.421875 64.59375 
z
" id="DejaVuSans-105"/>
      <path d="M 18.109375 8.203125 
L 18.109375 -20.796875 
L 9.078125 -20.796875 
L 9.078125 54.6875 
L 18.109375 54.6875 
L 18.109375 46.390625 
Q 20.953125 51.265625 25.265625 53.625 
Q 29.59375 56 35.59375 56 
Q 45.5625 56 51.78125 48.09375 
Q 58.015625 40.1875 58.015625 27.296875 
Q 58.015625 14.40625 51.78125 6.484375 
Q 45.5625 -1.421875 35.59375 -1.421875 
Q 29.59375 -1.421875 25.265625 0.953125 
Q 20.953125 3.328125 18.109375 8.203125 
z
M 48.6875 27.296875 
Q 48.6875 37.203125 44.609375 42.84375 
Q 40.53125 48.484375 33.40625 48.484375 
Q 26.265625 48.484375 22.1875 42.84375 
Q 18.109375 37.203125 18.109375 27.296875 
Q 18.109375 17.390625 22.1875 11.75 
Q 26.265625 6.109375 33.40625 6.109375 
Q 40.53125 6.109375 44.609375 11.75 
Q 48.6875 17.390625 48.6875 27.296875 
z
" id="DejaVuSans-112"/>
      <path d="M 44.28125 53.078125 
L 44.28125 44.578125 
Q 40.484375 46.53125 36.375 47.5 
Q 32.28125 48.484375 27.875 48.484375 
Q 21.1875 48.484375 17.84375 46.4375 
Q 14.5 44.390625 14.5 40.28125 
Q 14.5 37.15625 16.890625 35.375 
Q 19.28125 33.59375 26.515625 31.984375 
L 29.59375 31.296875 
Q 39.15625 29.25 43.1875 25.515625 
Q 47.21875 21.78125 47.21875 15.09375 
Q 47.21875 7.46875 41.1875 3.015625 
Q 35.15625 -1.421875 24.609375 -1.421875 
Q 20.21875 -1.421875 15.453125 -0.5625 
Q 10.6875 0.296875 5.421875 2 
L 5.421875 11.28125 
Q 10.40625 8.6875 15.234375 7.390625 
Q 20.0625 6.109375 24.8125 6.109375 
Q 31.15625 6.109375 34.5625 8.28125 
Q 37.984375 10.453125 37.984375 14.40625 
Q 37.984375 18.0625 35.515625 20.015625 
Q 33.0625 21.96875 24.703125 23.78125 
L 21.578125 24.515625 
Q 13.234375 26.265625 9.515625 29.90625 
Q 5.8125 33.546875 5.8125 39.890625 
Q 5.8125 47.609375 11.28125 51.796875 
Q 16.75 56 26.8125 56 
Q 31.78125 56 36.171875 55.265625 
Q 40.578125 54.546875 44.28125 53.078125 
z
" id="DejaVuSans-115"/>
     </defs>
     <g transform="translate(21.123438 117.441281)rotate(-90)scale(0.1 -0.1)">
      <use xlink:href="#DejaVuSans-83"/>
      <use x="63.476562" xlink:href="#DejaVuSans-117"/>
      <use x="126.855469" xlink:href="#DejaVuSans-109"/>
      <use x="224.267578" xlink:href="#DejaVuSans-32"/>
      <use x="256.054688" xlink:href="#DejaVuSans-111"/>
      <use x="317.236328" xlink:href="#DejaVuSans-102"/>
      <use x="352.441406" xlink:href="#DejaVuSans-32"/>
      <use x="384.228516" xlink:href="#DejaVuSans-97"/>
      <use x="445.507812" xlink:href="#DejaVuSans-108"/>
      <use x="473.291016" xlink:href="#DejaVuSans-108"/>
      <use x="501.074219" xlink:href="#DejaVuSans-32"/>
      <use x="532.861328" xlink:href="#DejaVuSans-116"/>
      <use x="572.070312" xlink:href="#DejaVuSans-114"/>
      <use x="613.183594" xlink:href="#DejaVuSans-105"/>
      <use x="640.966797" xlink:href="#DejaVuSans-112"/>
      <use x="704.443359" xlink:href="#DejaVuSans-115"/>
      <use x="756.542969" xlink:href="#DejaVuSans-32"/>
     </g>
     <!--  in sample in km -->
     <defs>
      <path d="M 54.890625 33.015625 
L 54.890625 0 
L 45.90625 0 
L 45.90625 32.71875 
Q 45.90625 40.484375 42.875 44.328125 
Q 39.84375 48.1875 33.796875 48.1875 
Q 26.515625 48.1875 22.3125 43.546875 
Q 18.109375 38.921875 18.109375 30.90625 
L 18.109375 0 
L 9.078125 0 
L 9.078125 54.6875 
L 18.109375 54.6875 
L 18.109375 46.1875 
Q 21.34375 51.125 25.703125 53.5625 
Q 30.078125 56 35.796875 56 
Q 45.21875 56 50.046875 50.171875 
Q 54.890625 44.34375 54.890625 33.015625 
z
" id="DejaVuSans-110"/>
      <path d="M 56.203125 29.59375 
L 56.203125 25.203125 
L 14.890625 25.203125 
Q 15.484375 15.921875 20.484375 11.0625 
Q 25.484375 6.203125 34.421875 6.203125 
Q 39.59375 6.203125 44.453125 7.46875 
Q 49.3125 8.734375 54.109375 11.28125 
L 54.109375 2.78125 
Q 49.265625 0.734375 44.1875 -0.34375 
Q 39.109375 -1.421875 33.890625 -1.421875 
Q 20.796875 -1.421875 13.15625 6.1875 
Q 5.515625 13.8125 5.515625 26.8125 
Q 5.515625 40.234375 12.765625 48.109375 
Q 20.015625 56 32.328125 56 
Q 43.359375 56 49.78125 48.890625 
Q 56.203125 41.796875 56.203125 29.59375 
z
M 47.21875 32.234375 
Q 47.125 39.59375 43.09375 43.984375 
Q 39.0625 48.390625 32.421875 48.390625 
Q 24.90625 48.390625 20.390625 44.140625 
Q 15.875 39.890625 15.1875 32.171875 
z
" id="DejaVuSans-101"/>
      <path d="M 9.078125 75.984375 
L 18.109375 75.984375 
L 18.109375 31.109375 
L 44.921875 54.6875 
L 56.390625 54.6875 
L 27.390625 29.109375 
L 57.625 0 
L 45.90625 0 
L 18.109375 26.703125 
L 18.109375 0 
L 9.078125 0 
z
" id="DejaVuSans-107"/>
     </defs>
     <g transform="translate(32.32125 119.442844)rotate(-90)scale(0.1 -0.1)">
      <use xlink:href="#DejaVuSans-32"/>
      <use x="31.787109" xlink:href="#DejaVuSans-105"/>
      <use x="59.570312" xlink:href="#DejaVuSans-110"/>
      <use x="122.949219" xlink:href="#DejaVuSans-32"/>
      <use x="154.736328" xlink:href="#DejaVuSans-115"/>
      <use x="206.835938" xlink:href="#DejaVuSans-97"/>
      <use x="268.115234" xlink:href="#DejaVuSans-109"/>
      <use x="365.527344" xlink:href="#DejaVuSans-112"/>
      <use x="429.003906" xlink:href="#DejaVuSans-108"/>
      <use x="456.787109" xlink:href="#DejaVuSans-101"/>
      <use x="518.310547" xlink:href="#DejaVuSans-32"/>
      <use x="550.097656" xlink:href="#DejaVuSans-105"/>
      <use x="577.880859" xlink:href="#DejaVuSans-110"/>
      <use x="641.259766" xlink:href="#DejaVuSans-32"/>
      <use x="673.046875" xlink:href="#DejaVuSans-107"/>
      <use x="730.957031" xlink:href="#DejaVuSans-109"/>
     </g>
    </g>
    <g id="text_7">
     <!-- $\times\mathdefault{10^{2}}\mathdefault{}$ -->
     <defs>
      <path d="M 70.125 53.71875 
L 47.796875 31.296875 
L 70.125 8.984375 
L 64.3125 3.078125 
L 41.890625 25.484375 
L 19.484375 3.078125 
L 13.71875 8.984375 
L 35.984375 31.296875 
L 13.71875 53.71875 
L 19.484375 59.625 
L 41.890625 37.203125 
L 64.3125 59.625 
z
" id="DejaVuSans-215"/>
      <path d="M 12.40625 8.296875 
L 28.515625 8.296875 
L 28.515625 63.921875 
L 10.984375 60.40625 
L 10.984375 69.390625 
L 28.421875 72.90625 
L 38.28125 72.90625 
L 38.28125 8.296875 
L 54.390625 8.296875 
L 54.390625 0 
L 12.40625 0 
z
" id="DejaVuSans-49"/>
     </defs>
     <g transform="translate(51.800938 14.798437)scale(0.1 -0.1)">
      <use transform="translate(0 0.765625)" xlink:href="#DejaVuSans-215"/>
      <use transform="translate(83.789062 0.765625)" xlink:href="#DejaVuSans-49"/>
      <use transform="translate(147.412109 0.765625)" xlink:href="#DejaVuSans-48"/>
      <use transform="translate(211.992188 39.046875)scale(0.7)" xlink:href="#DejaVuSans-50"/>
     </g>
    </g>
   </g>
   <g id="line2d_20">
    <path clip-path="url(#pc7f8fd4bc4)" d="M 68.033665 132.779165 
L 69.977704 121.768154 
L 71.921743 132.779165 
L 73.865782 132.779165 
L 75.809822 129.769489 
L 77.753861 107.325379 
L 79.6979 101.677448 
L 81.641939 107.285521 
L 83.585978 92.045027 
L 85.530018 92.287269 
L 87.474057 119.734048 
L 89.418096 120.008569 
L 91.362135 116.849322 
L 93.306174 108.236399 
L 95.250213 121.99755 
L 97.194253 108.798793 
L 99.138292 79.095265 
L 101.082331 105.923378 
L 103.02637 125.742618 
L 104.970409 124.487942 
L 106.914449 122.329716 
L 108.858488 125.854463 
L 110.802527 131.005169 
L 112.746566 110.757144 
L 114.690605 132.779165 
L 120.522723 132.779165 
L 122.466762 132.228614 
L 124.410801 128.705091 
L 126.354841 131.815701 
L 128.29888 118.756643 
L 130.242919 102.598242 
L 132.186958 116.240659 
L 134.130997 123.143371 
L 136.075037 125.538846 
L 138.019076 127.020406 
L 139.963115 121.862072 
L 141.907154 113.887811 
L 143.851193 114.994353 
L 145.795233 98.680576 
L 147.739272 105.04494 
L 149.683311 112.268743 
L 151.62735 129.171224 
L 153.571389 131.788174 
L 155.515429 132.338724 
L 157.459468 117.664688 
L 159.403507 123.370383 
L 161.347546 132.421307 
L 163.291585 130.026412 
L 165.235624 132.779165 
L 167.179664 121.034087 
L 169.123703 96.83608 
L 171.067742 89.112643 
L 173.011781 129.640447 
L 174.95582 123.088316 
L 176.89986 122.37318 
L 178.843899 121.458687 
L 180.787938 103.795141 
L 182.731977 121.261214 
L 186.620056 104.827811 
L 188.564095 114.655129 
L 190.508134 104.521242 
L 192.452173 105.545242 
L 194.396212 103.100996 
L 196.340252 116.345668 
L 198.284291 112.407636 
L 200.22833 116.703089 
L 202.172369 127.409986 
L 204.116408 128.457495 
L 206.060448 130.05394 
L 208.004487 132.779165 
L 215.780644 132.779165 
L 217.724683 132.366252 
L 219.668722 128.237123 
L 221.612761 117.995572 
L 223.5568 126.094474 
L 225.50084 126.992299 
L 227.444879 124.597404 
L 229.388918 124.36342 
L 231.332957 123.664221 
L 233.276996 116.552123 
L 235.221035 118.038609 
L 237.165075 111.92845 
L 239.109114 113.472144 
L 241.053153 105.655204 
L 242.997192 100.829197 
L 244.941231 111.131439 
L 246.885271 130.309552 
L 248.82931 124.788317 
L 250.773349 130.549435 
L 252.717388 129.337644 
L 254.661427 130.576963 
L 256.605467 132.779165 
L 262.437584 132.779165 
L 264.381623 126.465244 
L 266.325663 110.260236 
L 268.269702 128.468872 
L 270.213741 123.566619 
L 272.15778 106.352739 
L 274.101819 106.90329 
L 276.045859 124.644041 
L 277.989898 95.877507 
L 279.933937 49.45805 
L 281.877976 23.27371 
L 283.822015 98.058208 
L 285.766055 117.110304 
L 287.710094 107.979981 
L 289.654133 117.366173 
L 291.598172 125.261648 
L 293.542211 127.39378 
L 295.486251 132.779165 
L 297.43029 132.779165 
L 299.374329 130.576963 
L 301.318368 132.779165 
L 309.094525 132.779165 
L 311.038564 131.017403 
L 312.982603 132.779165 
L 314.926642 104.350737 
L 316.870682 120.961769 
L 318.814721 123.307378 
L 320.75876 123.694502 
L 322.702799 120.318371 
L 324.646838 98.333053 
L 326.590878 127.361748 
L 328.534917 125.73841 
L 330.478956 126.445212 
L 332.422995 126.686406 
L 334.367034 111.234287 
L 336.311074 122.942662 
L 338.255113 129.640447 
L 340.199152 131.127513 
L 342.143191 132.779165 
L 344.08723 132.779165 
L 346.03127 126.172558 
L 347.975309 132.779165 
L 349.919348 131.678064 
L 351.863387 132.779165 
L 357.695505 132.779165 
L 359.639544 132.448834 
L 361.583583 132.779165 
L 363.527622 130.907293 
L 365.471662 122.872251 
L 367.415701 102.996805 
L 369.35974 84.333142 
L 371.303779 105.152721 
L 373.247818 117.157107 
L 375.191857 109.313572 
L 377.135897 41.684874 
L 379.079936 63.793695 
L 381.023975 105.635483 
L 382.968014 117.920482 
L 384.912053 94.900129 
L 386.856093 102.168555 
L 388.800132 132.008394 
L 390.744171 131.567954 
L 392.68821 131.678064 
L 392.68821 131.678064 
" style="fill:none;stroke:#1f77b4;stroke-linecap:square;stroke-width:1.5;"/>
   </g>
   <g id="patch_3">
    <path d="M 51.800938 138.254437 
L 51.800938 17.798437 
" style="fill:none;stroke:#000000;stroke-linecap:square;stroke-linejoin:miter;stroke-width:0.8;"/>
   </g>
   <g id="patch_4">
    <path d="M 408.920938 138.254437 
L 408.920938 17.798437 
" style="fill:none;stroke:#000000;stroke-linecap:square;stroke-linejoin:miter;stroke-width:0.8;"/>
   </g>
   <g id="patch_5">
    <path d="M 51.800938 138.254437 
L 408.920937 138.254437 
" style="fill:none;stroke:#000000;stroke-linecap:square;stroke-linejoin:miter;stroke-width:0.8;"/>
   </g>
   <g id="patch_6">
    <path d="M 51.800938 17.798437 
L 408.920937 17.798437 
" style="fill:none;stroke:#000000;stroke-linecap:square;stroke-linejoin:miter;stroke-width:0.8;"/>
   </g>
   <g id="legend_1">
    <g id="patch_7">
     <path d="M 311.802188 40.754687 
L 401.920938 40.754687 
Q 403.920938 40.754687 403.920938 38.754687 
L 403.920938 24.798437 
Q 403.920938 22.798437 401.920938 22.798437 
L 311.802188 22.798437 
Q 309.802188 22.798437 309.802188 24.798437 
L 309.802188 38.754687 
Q 309.802188 40.754687 311.802188 40.754687 
z
" style="fill:#ffffff;opacity:0.8;stroke:#cccccc;stroke-linejoin:miter;"/>
    </g>
    <g id="line2d_21">
     <path d="M 313.802188 30.896875 
L 333.802188 30.896875 
" style="fill:none;stroke:#1f77b4;stroke-linecap:square;stroke-width:1.5;"/>
    </g>
    <g id="line2d_22"/>
    <g id="text_8">
     <!-- MiD17_sum -->
     <defs>
      <path d="M 9.8125 72.90625 
L 24.515625 72.90625 
L 43.109375 23.296875 
L 61.8125 72.90625 
L 76.515625 72.90625 
L 76.515625 0 
L 66.890625 0 
L 66.890625 64.015625 
L 48.09375 14.015625 
L 38.1875 14.015625 
L 19.390625 64.015625 
L 19.390625 0 
L 9.8125 0 
z
" id="DejaVuSans-77"/>
      <path d="M 19.671875 64.796875 
L 19.671875 8.109375 
L 31.59375 8.109375 
Q 46.6875 8.109375 53.6875 14.9375 
Q 60.6875 21.78125 60.6875 36.53125 
Q 60.6875 51.171875 53.6875 57.984375 
Q 46.6875 64.796875 31.59375 64.796875 
z
M 9.8125 72.90625 
L 30.078125 72.90625 
Q 51.265625 72.90625 61.171875 64.09375 
Q 71.09375 55.28125 71.09375 36.53125 
Q 71.09375 17.671875 61.125 8.828125 
Q 51.171875 0 30.078125 0 
L 9.8125 0 
z
" id="DejaVuSans-68"/>
      <path d="M 8.203125 72.90625 
L 55.078125 72.90625 
L 55.078125 68.703125 
L 28.609375 0 
L 18.3125 0 
L 43.21875 64.59375 
L 8.203125 64.59375 
z
" id="DejaVuSans-55"/>
      <path d="M 50.984375 -16.609375 
L 50.984375 -23.578125 
L -0.984375 -23.578125 
L -0.984375 -16.609375 
z
" id="DejaVuSans-95"/>
     </defs>
     <g transform="translate(341.802188 34.396875)scale(0.1 -0.1)">
      <use xlink:href="#DejaVuSans-77"/>
      <use x="86.279297" xlink:href="#DejaVuSans-105"/>
      <use x="114.0625" xlink:href="#DejaVuSans-68"/>
      <use x="191.064453" xlink:href="#DejaVuSans-49"/>
      <use x="254.6875" xlink:href="#DejaVuSans-55"/>
      <use x="318.310547" xlink:href="#DejaVuSans-95"/>
      <use x="368.310547" xlink:href="#DejaVuSans-115"/>
      <use x="420.410156" xlink:href="#DejaVuSans-117"/>
      <use x="483.789062" xlink:href="#DejaVuSans-109"/>
     </g>
    </g>
   </g>
  </g>
  <g id="axes_2">
   <g id="patch_8">
    <path d="M 51.800938 282.801637 
L 408.920938 282.801637 
L 408.920938 162.345637 
L 51.800938 162.345637 
z
" style="fill:#ffffff;"/>
   </g>
   <g id="matplotlib.axis_3">
    <g id="xtick_15">
     <g id="line2d_23">
      <g>
       <use style="stroke:#000000;stroke-width:0.8;" x="68.033665" xlink:href="#md2ecd76fe7" y="282.801637"/>
      </g>
     </g>
     <g id="text_9">
      <!-- MON -->
      <defs>
       <path d="M 39.40625 66.21875 
Q 28.65625 66.21875 22.328125 58.203125 
Q 16.015625 50.203125 16.015625 36.375 
Q 16.015625 22.609375 22.328125 14.59375 
Q 28.65625 6.59375 39.40625 6.59375 
Q 50.140625 6.59375 56.421875 14.59375 
Q 62.703125 22.609375 62.703125 36.375 
Q 62.703125 50.203125 56.421875 58.203125 
Q 50.140625 66.21875 39.40625 66.21875 
z
M 39.40625 74.21875 
Q 54.734375 74.21875 63.90625 63.9375 
Q 73.09375 53.65625 73.09375 36.375 
Q 73.09375 19.140625 63.90625 8.859375 
Q 54.734375 -1.421875 39.40625 -1.421875 
Q 24.03125 -1.421875 14.8125 8.828125 
Q 5.609375 19.09375 5.609375 36.375 
Q 5.609375 53.65625 14.8125 63.9375 
Q 24.03125 74.21875 39.40625 74.21875 
z
" id="DejaVuSans-79"/>
       <path d="M 9.8125 72.90625 
L 23.09375 72.90625 
L 55.421875 11.921875 
L 55.421875 72.90625 
L 64.984375 72.90625 
L 64.984375 0 
L 51.703125 0 
L 19.390625 60.984375 
L 19.390625 0 
L 9.8125 0 
z
" id="DejaVuSans-78"/>
      </defs>
      <g transform="translate(56.04304 297.400075)scale(0.1 -0.1)">
       <use xlink:href="#DejaVuSans-77"/>
       <use x="86.279297" xlink:href="#DejaVuSans-79"/>
       <use x="164.990234" xlink:href="#DejaVuSans-78"/>
      </g>
      <!-- 0:00 -->
      <defs>
       <path d="M 11.71875 12.40625 
L 22.015625 12.40625 
L 22.015625 0 
L 11.71875 0 
z
M 11.71875 51.703125 
L 22.015625 51.703125 
L 22.015625 39.3125 
L 11.71875 39.3125 
z
" id="DejaVuSans-58"/>
      </defs>
      <g transform="translate(56.80554 308.597888)scale(0.1 -0.1)">
       <use xlink:href="#DejaVuSans-48"/>
       <use x="63.623047" xlink:href="#DejaVuSans-58"/>
       <use x="97.314453" xlink:href="#DejaVuSans-48"/>
       <use x="160.9375" xlink:href="#DejaVuSans-48"/>
      </g>
     </g>
    </g>
    <g id="xtick_16">
     <g id="line2d_24">
      <g>
       <use style="stroke:#000000;stroke-width:0.8;" x="91.362135" xlink:href="#md2ecd76fe7" y="282.801637"/>
      </g>
     </g>
     <g id="text_10">
      <!-- MON -->
      <g transform="translate(79.37151 297.400075)scale(0.1 -0.1)">
       <use xlink:href="#DejaVuSans-77"/>
       <use x="86.279297" xlink:href="#DejaVuSans-79"/>
       <use x="164.990234" xlink:href="#DejaVuSans-78"/>
      </g>
      <!-- 12:00 -->
      <g transform="translate(76.95276 308.597888)scale(0.1 -0.1)">
       <use xlink:href="#DejaVuSans-49"/>
       <use x="63.623047" xlink:href="#DejaVuSans-50"/>
       <use x="127.246094" xlink:href="#DejaVuSans-58"/>
       <use x="160.9375" xlink:href="#DejaVuSans-48"/>
       <use x="224.560547" xlink:href="#DejaVuSans-48"/>
      </g>
     </g>
    </g>
    <g id="xtick_17">
     <g id="line2d_25">
      <g>
       <use style="stroke:#000000;stroke-width:0.8;" x="114.690605" xlink:href="#md2ecd76fe7" y="282.801637"/>
      </g>
     </g>
     <g id="text_11">
      <!-- TUE -->
      <defs>
       <path d="M -0.296875 72.90625 
L 61.375 72.90625 
L 61.375 64.59375 
L 35.5 64.59375 
L 35.5 0 
L 25.59375 0 
L 25.59375 64.59375 
L -0.296875 64.59375 
z
" id="DejaVuSans-84"/>
       <path d="M 8.6875 72.90625 
L 18.609375 72.90625 
L 18.609375 28.609375 
Q 18.609375 16.890625 22.84375 11.734375 
Q 27.09375 6.59375 36.625 6.59375 
Q 46.09375 6.59375 50.34375 11.734375 
Q 54.59375 16.890625 54.59375 28.609375 
L 54.59375 72.90625 
L 64.5 72.90625 
L 64.5 27.390625 
Q 64.5 13.140625 57.4375 5.859375 
Q 50.390625 -1.421875 36.625 -1.421875 
Q 22.796875 -1.421875 15.734375 5.859375 
Q 8.6875 13.140625 8.6875 27.390625 
z
" id="DejaVuSans-85"/>
       <path d="M 9.8125 72.90625 
L 55.90625 72.90625 
L 55.90625 64.59375 
L 19.671875 64.59375 
L 19.671875 43.015625 
L 54.390625 43.015625 
L 54.390625 34.71875 
L 19.671875 34.71875 
L 19.671875 8.296875 
L 56.78125 8.296875 
L 56.78125 0 
L 9.8125 0 
z
" id="DejaVuSans-69"/>
      </defs>
      <g transform="translate(104.817949 297.400075)scale(0.1 -0.1)">
       <use xlink:href="#DejaVuSans-84"/>
       <use x="61.083984" xlink:href="#DejaVuSans-85"/>
       <use x="134.277344" xlink:href="#DejaVuSans-69"/>
      </g>
      <!-- 0:00 -->
      <g transform="translate(103.46248 308.597888)scale(0.1 -0.1)">
       <use xlink:href="#DejaVuSans-48"/>
       <use x="63.623047" xlink:href="#DejaVuSans-58"/>
       <use x="97.314453" xlink:href="#DejaVuSans-48"/>
       <use x="160.9375" xlink:href="#DejaVuSans-48"/>
      </g>
     </g>
    </g>
    <g id="xtick_18">
     <g id="line2d_26">
      <g>
       <use style="stroke:#000000;stroke-width:0.8;" x="138.019076" xlink:href="#md2ecd76fe7" y="282.801637"/>
      </g>
     </g>
     <g id="text_12">
      <!-- TUE -->
      <g transform="translate(128.14642 297.400075)scale(0.1 -0.1)">
       <use xlink:href="#DejaVuSans-84"/>
       <use x="61.083984" xlink:href="#DejaVuSans-85"/>
       <use x="134.277344" xlink:href="#DejaVuSans-69"/>
      </g>
      <!-- 12:00 -->
      <g transform="translate(123.609701 308.597888)scale(0.1 -0.1)">
       <use xlink:href="#DejaVuSans-49"/>
       <use x="63.623047" xlink:href="#DejaVuSans-50"/>
       <use x="127.246094" xlink:href="#DejaVuSans-58"/>
       <use x="160.9375" xlink:href="#DejaVuSans-48"/>
       <use x="224.560547" xlink:href="#DejaVuSans-48"/>
      </g>
     </g>
    </g>
    <g id="xtick_19">
     <g id="line2d_27">
      <g>
       <use style="stroke:#000000;stroke-width:0.8;" x="161.347546" xlink:href="#md2ecd76fe7" y="282.801637"/>
      </g>
     </g>
     <g id="text_13">
      <!-- WED -->
      <defs>
       <path d="M 3.328125 72.90625 
L 13.28125 72.90625 
L 28.609375 11.28125 
L 43.890625 72.90625 
L 54.984375 72.90625 
L 70.3125 11.28125 
L 85.59375 72.90625 
L 95.609375 72.90625 
L 77.296875 0 
L 64.890625 0 
L 49.515625 63.28125 
L 33.984375 0 
L 21.578125 0 
z
" id="DejaVuSans-87"/>
      </defs>
      <g transform="translate(149.394421 297.400075)scale(0.1 -0.1)">
       <use xlink:href="#DejaVuSans-87"/>
       <use x="98.876953" xlink:href="#DejaVuSans-69"/>
       <use x="162.060547" xlink:href="#DejaVuSans-68"/>
      </g>
      <!-- 0:00 -->
      <g transform="translate(150.119421 308.597888)scale(0.1 -0.1)">
       <use xlink:href="#DejaVuSans-48"/>
       <use x="63.623047" xlink:href="#DejaVuSans-58"/>
       <use x="97.314453" xlink:href="#DejaVuSans-48"/>
       <use x="160.9375" xlink:href="#DejaVuSans-48"/>
      </g>
     </g>
    </g>
    <g id="xtick_20">
     <g id="line2d_28">
      <g>
       <use style="stroke:#000000;stroke-width:0.8;" x="184.676016" xlink:href="#md2ecd76fe7" y="282.801637"/>
      </g>
     </g>
     <g id="text_14">
      <!-- WED -->
      <g transform="translate(172.722891 297.400075)scale(0.1 -0.1)">
       <use xlink:href="#DejaVuSans-87"/>
       <use x="98.876953" xlink:href="#DejaVuSans-69"/>
       <use x="162.060547" xlink:href="#DejaVuSans-68"/>
      </g>
      <!-- 12:00 -->
      <g transform="translate(170.266641 308.597888)scale(0.1 -0.1)">
       <use xlink:href="#DejaVuSans-49"/>
       <use x="63.623047" xlink:href="#DejaVuSans-50"/>
       <use x="127.246094" xlink:href="#DejaVuSans-58"/>
       <use x="160.9375" xlink:href="#DejaVuSans-48"/>
       <use x="224.560547" xlink:href="#DejaVuSans-48"/>
      </g>
     </g>
    </g>
    <g id="xtick_21">
     <g id="line2d_29">
      <g>
       <use style="stroke:#000000;stroke-width:0.8;" x="208.004487" xlink:href="#md2ecd76fe7" y="282.801637"/>
      </g>
     </g>
     <g id="text_15">
      <!-- THU -->
      <defs>
       <path d="M 9.8125 72.90625 
L 19.671875 72.90625 
L 19.671875 43.015625 
L 55.515625 43.015625 
L 55.515625 72.90625 
L 65.375 72.90625 
L 65.375 0 
L 55.515625 0 
L 55.515625 34.71875 
L 19.671875 34.71875 
L 19.671875 0 
L 9.8125 0 
z
" id="DejaVuSans-72"/>
      </defs>
      <g transform="translate(197.531049 297.400075)scale(0.1 -0.1)">
       <use xlink:href="#DejaVuSans-84"/>
       <use x="61.083984" xlink:href="#DejaVuSans-72"/>
       <use x="136.279297" xlink:href="#DejaVuSans-85"/>
      </g>
      <!-- 0:00 -->
      <g transform="translate(196.776362 308.597888)scale(0.1 -0.1)">
       <use xlink:href="#DejaVuSans-48"/>
       <use x="63.623047" xlink:href="#DejaVuSans-58"/>
       <use x="97.314453" xlink:href="#DejaVuSans-48"/>
       <use x="160.9375" xlink:href="#DejaVuSans-48"/>
      </g>
     </g>
    </g>
    <g id="xtick_22">
     <g id="line2d_30">
      <g>
       <use style="stroke:#000000;stroke-width:0.8;" x="231.332957" xlink:href="#md2ecd76fe7" y="282.801637"/>
      </g>
     </g>
     <g id="text_16">
      <!-- THU -->
      <g transform="translate(220.85952 297.400075)scale(0.1 -0.1)">
       <use xlink:href="#DejaVuSans-84"/>
       <use x="61.083984" xlink:href="#DejaVuSans-72"/>
       <use x="136.279297" xlink:href="#DejaVuSans-85"/>
      </g>
      <!-- 12:00 -->
      <g transform="translate(216.923582 308.597888)scale(0.1 -0.1)">
       <use xlink:href="#DejaVuSans-49"/>
       <use x="63.623047" xlink:href="#DejaVuSans-50"/>
       <use x="127.246094" xlink:href="#DejaVuSans-58"/>
       <use x="160.9375" xlink:href="#DejaVuSans-48"/>
       <use x="224.560547" xlink:href="#DejaVuSans-48"/>
      </g>
     </g>
    </g>
    <g id="xtick_23">
     <g id="line2d_31">
      <g>
       <use style="stroke:#000000;stroke-width:0.8;" x="254.661427" xlink:href="#md2ecd76fe7" y="282.801637"/>
      </g>
     </g>
     <g id="text_17">
      <!-- FRI -->
      <defs>
       <path d="M 9.8125 72.90625 
L 51.703125 72.90625 
L 51.703125 64.59375 
L 19.671875 64.59375 
L 19.671875 43.109375 
L 48.578125 43.109375 
L 48.578125 34.8125 
L 19.671875 34.8125 
L 19.671875 0 
L 9.8125 0 
z
" id="DejaVuSans-70"/>
       <path d="M 44.390625 34.1875 
Q 47.5625 33.109375 50.5625 29.59375 
Q 53.5625 26.078125 56.59375 19.921875 
L 66.609375 0 
L 56 0 
L 46.6875 18.703125 
Q 43.0625 26.03125 39.671875 28.421875 
Q 36.28125 30.8125 30.421875 30.8125 
L 19.671875 30.8125 
L 19.671875 0 
L 9.8125 0 
L 9.8125 72.90625 
L 32.078125 72.90625 
Q 44.578125 72.90625 50.734375 67.671875 
Q 56.890625 62.453125 56.890625 51.90625 
Q 56.890625 45.015625 53.6875 40.46875 
Q 50.484375 35.9375 44.390625 34.1875 
z
M 19.671875 64.796875 
L 19.671875 38.921875 
L 32.078125 38.921875 
Q 39.203125 38.921875 42.84375 42.21875 
Q 46.484375 45.515625 46.484375 51.90625 
Q 46.484375 58.296875 42.84375 61.546875 
Q 39.203125 64.796875 32.078125 64.796875 
z
" id="DejaVuSans-82"/>
       <path d="M 9.8125 72.90625 
L 19.671875 72.90625 
L 19.671875 0 
L 9.8125 0 
z
" id="DejaVuSans-73"/>
      </defs>
      <g transform="translate(246.836427 297.400075)scale(0.1 -0.1)">
       <use xlink:href="#DejaVuSans-70"/>
       <use x="57.519531" xlink:href="#DejaVuSans-82"/>
       <use x="127.001953" xlink:href="#DejaVuSans-73"/>
      </g>
      <!-- 0:00 -->
      <g transform="translate(243.433302 308.597888)scale(0.1 -0.1)">
       <use xlink:href="#DejaVuSans-48"/>
       <use x="63.623047" xlink:href="#DejaVuSans-58"/>
       <use x="97.314453" xlink:href="#DejaVuSans-48"/>
       <use x="160.9375" xlink:href="#DejaVuSans-48"/>
      </g>
     </g>
    </g>
    <g id="xtick_24">
     <g id="line2d_32">
      <g>
       <use style="stroke:#000000;stroke-width:0.8;" x="277.989898" xlink:href="#md2ecd76fe7" y="282.801637"/>
      </g>
     </g>
     <g id="text_18">
      <!-- FRI -->
      <g transform="translate(270.164898 297.400075)scale(0.1 -0.1)">
       <use xlink:href="#DejaVuSans-70"/>
       <use x="57.519531" xlink:href="#DejaVuSans-82"/>
       <use x="127.001953" xlink:href="#DejaVuSans-73"/>
      </g>
      <!-- 12:00 -->
      <g transform="translate(263.580523 308.597888)scale(0.1 -0.1)">
       <use xlink:href="#DejaVuSans-49"/>
       <use x="63.623047" xlink:href="#DejaVuSans-50"/>
       <use x="127.246094" xlink:href="#DejaVuSans-58"/>
       <use x="160.9375" xlink:href="#DejaVuSans-48"/>
       <use x="224.560547" xlink:href="#DejaVuSans-48"/>
      </g>
     </g>
    </g>
    <g id="xtick_25">
     <g id="line2d_33">
      <g>
       <use style="stroke:#000000;stroke-width:0.8;" x="301.318368" xlink:href="#md2ecd76fe7" y="282.801637"/>
      </g>
     </g>
     <g id="text_19">
      <!-- SAT -->
      <defs>
       <path d="M 34.1875 63.1875 
L 20.796875 26.90625 
L 47.609375 26.90625 
z
M 28.609375 72.90625 
L 39.796875 72.90625 
L 67.578125 0 
L 57.328125 0 
L 50.6875 18.703125 
L 17.828125 18.703125 
L 11.1875 0 
L 0.78125 0 
z
" id="DejaVuSans-65"/>
      </defs>
      <g transform="translate(291.674618 297.400075)scale(0.1 -0.1)">
       <use xlink:href="#DejaVuSans-83"/>
       <use x="63.492188" xlink:href="#DejaVuSans-65"/>
       <use x="131.791016" xlink:href="#DejaVuSans-84"/>
      </g>
      <!-- 0:00 -->
      <g transform="translate(290.090243 308.597888)scale(0.1 -0.1)">
       <use xlink:href="#DejaVuSans-48"/>
       <use x="63.623047" xlink:href="#DejaVuSans-58"/>
       <use x="97.314453" xlink:href="#DejaVuSans-48"/>
       <use x="160.9375" xlink:href="#DejaVuSans-48"/>
      </g>
     </g>
    </g>
    <g id="xtick_26">
     <g id="line2d_34">
      <g>
       <use style="stroke:#000000;stroke-width:0.8;" x="324.646838" xlink:href="#md2ecd76fe7" y="282.801637"/>
      </g>
     </g>
     <g id="text_20">
      <!-- SAT -->
      <g transform="translate(315.003088 297.400075)scale(0.1 -0.1)">
       <use xlink:href="#DejaVuSans-83"/>
       <use x="63.492188" xlink:href="#DejaVuSans-65"/>
       <use x="131.791016" xlink:href="#DejaVuSans-84"/>
      </g>
      <!-- 12:00 -->
      <g transform="translate(310.237463 308.597888)scale(0.1 -0.1)">
       <use xlink:href="#DejaVuSans-49"/>
       <use x="63.623047" xlink:href="#DejaVuSans-50"/>
       <use x="127.246094" xlink:href="#DejaVuSans-58"/>
       <use x="160.9375" xlink:href="#DejaVuSans-48"/>
       <use x="224.560547" xlink:href="#DejaVuSans-48"/>
      </g>
     </g>
    </g>
    <g id="xtick_27">
     <g id="line2d_35">
      <g>
       <use style="stroke:#000000;stroke-width:0.8;" x="347.975309" xlink:href="#md2ecd76fe7" y="282.801637"/>
      </g>
     </g>
     <g id="text_21">
      <!-- SUN -->
      <g transform="translate(337.40109 297.400075)scale(0.1 -0.1)">
       <use xlink:href="#DejaVuSans-83"/>
       <use x="63.476562" xlink:href="#DejaVuSans-85"/>
       <use x="136.669922" xlink:href="#DejaVuSans-78"/>
      </g>
      <!-- 0:00 -->
      <g transform="translate(336.747184 308.597888)scale(0.1 -0.1)">
       <use xlink:href="#DejaVuSans-48"/>
       <use x="63.623047" xlink:href="#DejaVuSans-58"/>
       <use x="97.314453" xlink:href="#DejaVuSans-48"/>
       <use x="160.9375" xlink:href="#DejaVuSans-48"/>
      </g>
     </g>
    </g>
    <g id="xtick_28">
     <g id="line2d_36">
      <g>
       <use style="stroke:#000000;stroke-width:0.8;" x="371.303779" xlink:href="#md2ecd76fe7" y="282.801637"/>
      </g>
     </g>
     <g id="text_22">
      <!-- SUN -->
      <g transform="translate(360.72956 297.400075)scale(0.1 -0.1)">
       <use xlink:href="#DejaVuSans-83"/>
       <use x="63.476562" xlink:href="#DejaVuSans-85"/>
       <use x="136.669922" xlink:href="#DejaVuSans-78"/>
      </g>
      <!-- 12:00 -->
      <g transform="translate(356.894404 308.597888)scale(0.1 -0.1)">
       <use xlink:href="#DejaVuSans-49"/>
       <use x="63.623047" xlink:href="#DejaVuSans-50"/>
       <use x="127.246094" xlink:href="#DejaVuSans-58"/>
       <use x="160.9375" xlink:href="#DejaVuSans-48"/>
       <use x="224.560547" xlink:href="#DejaVuSans-48"/>
      </g>
     </g>
    </g>
    <g id="text_23">
     <!-- Hour -->
     <g transform="translate(218.317188 322.276012)scale(0.1 -0.1)">
      <use xlink:href="#DejaVuSans-72"/>
      <use x="75.195312" xlink:href="#DejaVuSans-111"/>
      <use x="136.376953" xlink:href="#DejaVuSans-117"/>
      <use x="199.755859" xlink:href="#DejaVuSans-114"/>
     </g>
    </g>
   </g>
   <g id="matplotlib.axis_4">
    <g id="ytick_6">
     <g id="line2d_37">
      <g>
       <use style="stroke:#000000;stroke-width:0.8;" x="51.800938" xlink:href="#mb237207855" y="277.326365"/>
      </g>
     </g>
     <g id="text_24">
      <!-- 0 -->
      <g transform="translate(38.438438 281.125584)scale(0.1 -0.1)">
       <use xlink:href="#DejaVuSans-48"/>
      </g>
     </g>
    </g>
    <g id="ytick_7">
     <g id="line2d_38">
      <g>
       <use style="stroke:#000000;stroke-width:0.8;" x="51.800938" xlink:href="#mb237207855" y="257.202268"/>
      </g>
     </g>
     <g id="text_25">
      <!-- 10 -->
      <g transform="translate(32.075938 261.001487)scale(0.1 -0.1)">
       <use xlink:href="#DejaVuSans-49"/>
       <use x="63.623047" xlink:href="#DejaVuSans-48"/>
      </g>
     </g>
    </g>
    <g id="ytick_8">
     <g id="line2d_39">
      <g>
       <use style="stroke:#000000;stroke-width:0.8;" x="51.800938" xlink:href="#mb237207855" y="237.078171"/>
      </g>
     </g>
     <g id="text_26">
      <!-- 20 -->
      <g transform="translate(32.075938 240.87739)scale(0.1 -0.1)">
       <use xlink:href="#DejaVuSans-50"/>
       <use x="63.623047" xlink:href="#DejaVuSans-48"/>
      </g>
     </g>
    </g>
    <g id="ytick_9">
     <g id="line2d_40">
      <g>
       <use style="stroke:#000000;stroke-width:0.8;" x="51.800938" xlink:href="#mb237207855" y="216.954074"/>
      </g>
     </g>
     <g id="text_27">
      <!-- 30 -->
      <defs>
       <path d="M 40.578125 39.3125 
Q 47.65625 37.796875 51.625 33 
Q 55.609375 28.21875 55.609375 21.1875 
Q 55.609375 10.40625 48.1875 4.484375 
Q 40.765625 -1.421875 27.09375 -1.421875 
Q 22.515625 -1.421875 17.65625 -0.515625 
Q 12.796875 0.390625 7.625 2.203125 
L 7.625 11.71875 
Q 11.71875 9.328125 16.59375 8.109375 
Q 21.484375 6.890625 26.8125 6.890625 
Q 36.078125 6.890625 40.9375 10.546875 
Q 45.796875 14.203125 45.796875 21.1875 
Q 45.796875 27.640625 41.28125 31.265625 
Q 36.765625 34.90625 28.71875 34.90625 
L 20.21875 34.90625 
L 20.21875 43.015625 
L 29.109375 43.015625 
Q 36.375 43.015625 40.234375 45.921875 
Q 44.09375 48.828125 44.09375 54.296875 
Q 44.09375 59.90625 40.109375 62.90625 
Q 36.140625 65.921875 28.71875 65.921875 
Q 24.65625 65.921875 20.015625 65.03125 
Q 15.375 64.15625 9.8125 62.3125 
L 9.8125 71.09375 
Q 15.4375 72.65625 20.34375 73.4375 
Q 25.25 74.21875 29.59375 74.21875 
Q 40.828125 74.21875 47.359375 69.109375 
Q 53.90625 64.015625 53.90625 55.328125 
Q 53.90625 49.265625 50.4375 45.09375 
Q 46.96875 40.921875 40.578125 39.3125 
z
" id="DejaVuSans-51"/>
      </defs>
      <g transform="translate(32.075938 220.753293)scale(0.1 -0.1)">
       <use xlink:href="#DejaVuSans-51"/>
       <use x="63.623047" xlink:href="#DejaVuSans-48"/>
      </g>
     </g>
    </g>
    <g id="ytick_10">
     <g id="line2d_41">
      <g>
       <use style="stroke:#000000;stroke-width:0.8;" x="51.800938" xlink:href="#mb237207855" y="196.829977"/>
      </g>
     </g>
     <g id="text_28">
      <!-- 40 -->
      <g transform="translate(32.075938 200.629196)scale(0.1 -0.1)">
       <use xlink:href="#DejaVuSans-52"/>
       <use x="63.623047" xlink:href="#DejaVuSans-48"/>
      </g>
     </g>
    </g>
    <g id="ytick_11">
     <g id="line2d_42">
      <g>
       <use style="stroke:#000000;stroke-width:0.8;" x="51.800938" xlink:href="#mb237207855" y="176.70588"/>
      </g>
     </g>
     <g id="text_29">
      <!-- 50 -->
      <defs>
       <path d="M 10.796875 72.90625 
L 49.515625 72.90625 
L 49.515625 64.59375 
L 19.828125 64.59375 
L 19.828125 46.734375 
Q 21.96875 47.46875 24.109375 47.828125 
Q 26.265625 48.1875 28.421875 48.1875 
Q 40.625 48.1875 47.75 41.5 
Q 54.890625 34.8125 54.890625 23.390625 
Q 54.890625 11.625 47.5625 5.09375 
Q 40.234375 -1.421875 26.90625 -1.421875 
Q 22.3125 -1.421875 17.546875 -0.640625 
Q 12.796875 0.140625 7.71875 1.703125 
L 7.71875 11.625 
Q 12.109375 9.234375 16.796875 8.0625 
Q 21.484375 6.890625 26.703125 6.890625 
Q 35.15625 6.890625 40.078125 11.328125 
Q 45.015625 15.765625 45.015625 23.390625 
Q 45.015625 31 40.078125 35.4375 
Q 35.15625 39.890625 26.703125 39.890625 
Q 22.75 39.890625 18.8125 39.015625 
Q 14.890625 38.140625 10.796875 36.28125 
z
" id="DejaVuSans-53"/>
      </defs>
      <g transform="translate(32.075938 180.505099)scale(0.1 -0.1)">
       <use xlink:href="#DejaVuSans-53"/>
       <use x="63.623047" xlink:href="#DejaVuSans-48"/>
      </g>
     </g>
    </g>
    <g id="text_30">
     <!-- Average of hourly  -->
     <defs>
      <path d="M 2.984375 54.6875 
L 12.5 54.6875 
L 29.59375 8.796875 
L 46.6875 54.6875 
L 56.203125 54.6875 
L 35.6875 0 
L 23.484375 0 
z
" id="DejaVuSans-118"/>
      <path d="M 45.40625 27.984375 
Q 45.40625 37.75 41.375 43.109375 
Q 37.359375 48.484375 30.078125 48.484375 
Q 22.859375 48.484375 18.828125 43.109375 
Q 14.796875 37.75 14.796875 27.984375 
Q 14.796875 18.265625 18.828125 12.890625 
Q 22.859375 7.515625 30.078125 7.515625 
Q 37.359375 7.515625 41.375 12.890625 
Q 45.40625 18.265625 45.40625 27.984375 
z
M 54.390625 6.78125 
Q 54.390625 -7.171875 48.1875 -13.984375 
Q 42 -20.796875 29.203125 -20.796875 
Q 24.46875 -20.796875 20.265625 -20.09375 
Q 16.0625 -19.390625 12.109375 -17.921875 
L 12.109375 -9.1875 
Q 16.0625 -11.328125 19.921875 -12.34375 
Q 23.78125 -13.375 27.78125 -13.375 
Q 36.625 -13.375 41.015625 -8.765625 
Q 45.40625 -4.15625 45.40625 5.171875 
L 45.40625 9.625 
Q 42.625 4.78125 38.28125 2.390625 
Q 33.9375 0 27.875 0 
Q 17.828125 0 11.671875 7.65625 
Q 5.515625 15.328125 5.515625 27.984375 
Q 5.515625 40.671875 11.671875 48.328125 
Q 17.828125 56 27.875 56 
Q 33.9375 56 38.28125 53.609375 
Q 42.625 51.21875 45.40625 46.390625 
L 45.40625 54.6875 
L 54.390625 54.6875 
z
" id="DejaVuSans-103"/>
      <path d="M 54.890625 33.015625 
L 54.890625 0 
L 45.90625 0 
L 45.90625 32.71875 
Q 45.90625 40.484375 42.875 44.328125 
Q 39.84375 48.1875 33.796875 48.1875 
Q 26.515625 48.1875 22.3125 43.546875 
Q 18.109375 38.921875 18.109375 30.90625 
L 18.109375 0 
L 9.078125 0 
L 9.078125 75.984375 
L 18.109375 75.984375 
L 18.109375 46.1875 
Q 21.34375 51.125 25.703125 53.5625 
Q 30.078125 56 35.796875 56 
Q 45.21875 56 50.046875 50.171875 
Q 54.890625 44.34375 54.890625 33.015625 
z
" id="DejaVuSans-104"/>
      <path d="M 32.171875 -5.078125 
Q 28.375 -14.84375 24.75 -17.8125 
Q 21.140625 -20.796875 15.09375 -20.796875 
L 7.90625 -20.796875 
L 7.90625 -13.28125 
L 13.1875 -13.28125 
Q 16.890625 -13.28125 18.9375 -11.515625 
Q 21 -9.765625 23.484375 -3.21875 
L 25.09375 0.875 
L 2.984375 54.6875 
L 12.5 54.6875 
L 29.59375 11.921875 
L 46.6875 54.6875 
L 56.203125 54.6875 
z
" id="DejaVuSans-121"/>
     </defs>
     <g transform="translate(14.798438 268.783794)rotate(-90)scale(0.1 -0.1)">
      <use xlink:href="#DejaVuSans-65"/>
      <use x="68.330078" xlink:href="#DejaVuSans-118"/>
      <use x="127.509766" xlink:href="#DejaVuSans-101"/>
      <use x="189.033203" xlink:href="#DejaVuSans-114"/>
      <use x="230.146484" xlink:href="#DejaVuSans-97"/>
      <use x="291.425781" xlink:href="#DejaVuSans-103"/>
      <use x="354.902344" xlink:href="#DejaVuSans-101"/>
      <use x="416.425781" xlink:href="#DejaVuSans-32"/>
      <use x="448.212891" xlink:href="#DejaVuSans-111"/>
      <use x="509.394531" xlink:href="#DejaVuSans-102"/>
      <use x="544.599609" xlink:href="#DejaVuSans-32"/>
      <use x="576.386719" xlink:href="#DejaVuSans-104"/>
      <use x="639.765625" xlink:href="#DejaVuSans-111"/>
      <use x="700.947266" xlink:href="#DejaVuSans-117"/>
      <use x="764.326172" xlink:href="#DejaVuSans-114"/>
      <use x="805.439453" xlink:href="#DejaVuSans-108"/>
      <use x="833.222656" xlink:href="#DejaVuSans-121"/>
      <use x="892.402344" xlink:href="#DejaVuSans-32"/>
     </g>
     <!--  trips in km -->
     <g transform="translate(25.99625 250.847856)rotate(-90)scale(0.1 -0.1)">
      <use xlink:href="#DejaVuSans-32"/>
      <use x="31.787109" xlink:href="#DejaVuSans-116"/>
      <use x="70.996094" xlink:href="#DejaVuSans-114"/>
      <use x="112.109375" xlink:href="#DejaVuSans-105"/>
      <use x="139.892578" xlink:href="#DejaVuSans-112"/>
      <use x="203.369141" xlink:href="#DejaVuSans-115"/>
      <use x="255.46875" xlink:href="#DejaVuSans-32"/>
      <use x="287.255859" xlink:href="#DejaVuSans-105"/>
      <use x="315.039062" xlink:href="#DejaVuSans-110"/>
      <use x="378.417969" xlink:href="#DejaVuSans-32"/>
      <use x="410.205078" xlink:href="#DejaVuSans-107"/>
      <use x="468.115234" xlink:href="#DejaVuSans-109"/>
     </g>
    </g>
   </g>
   <g id="line2d_43">
    <path clip-path="url(#pbe90537320)" d="M 68.033665 277.326365 
L 69.977704 273.343471 
L 71.921743 277.326365 
L 73.865782 277.326365 
L 75.809822 276.237707 
L 77.753861 268.119241 
L 79.6979 266.076276 
L 81.641939 268.104824 
L 83.585978 262.592044 
L 85.530018 262.679668 
L 87.474057 272.607695 
L 89.418096 272.706995 
L 91.362135 271.564235 
L 93.306174 268.448775 
L 95.250213 273.426448 
L 97.194253 268.652204 
L 99.138292 257.907866 
L 101.082331 267.612111 
L 103.02637 274.78111 
L 104.970409 274.32727 
L 106.914449 273.546598 
L 108.858488 274.821567 
L 110.802527 276.684676 
L 112.746566 269.360576 
L 114.690605 277.326365 
L 120.522723 277.326365 
L 122.466762 277.113944 
L 124.410801 275.754449 
L 126.354841 276.954628 
L 128.29888 271.916001 
L 130.242919 265.681544 
L 132.186958 270.94525 
L 134.130997 273.60855 
L 136.075037 274.532805 
L 138.019076 275.104441 
L 139.963115 273.114181 
L 141.907154 270.037441 
L 143.851193 270.464383 
L 145.795233 264.169976 
L 147.739272 266.625563 
L 149.683311 269.41275 
L 151.62735 275.934299 
L 153.571389 276.944007 
L 155.515429 277.156428 
L 157.459468 271.494688 
L 159.403507 273.696138 
L 161.347546 277.209132 
L 163.291585 276.424577 
L 165.235624 277.326365 
L 167.179664 273.478739 
L 169.123703 265.551598 
L 171.067742 263.021441 
L 173.011781 276.298137 
L 174.95582 274.151694 
L 178.843899 273.617835 
L 180.787938 267.83135 
L 182.731977 273.553144 
L 186.620056 268.169648 
L 188.564095 271.389025 
L 190.508134 268.069217 
L 192.452173 268.404674 
L 194.396212 267.603952 
L 196.340252 271.942837 
L 198.284291 270.652759 
L 200.22833 272.059927 
L 202.172369 275.56745 
L 204.116408 275.910608 
L 206.060448 276.433595 
L 208.004487 277.326365 
L 215.780644 277.326365 
L 217.724683 277.182981 
L 219.668722 275.749139 
L 221.612761 272.192756 
L 223.5568 275.005103 
L 225.50084 275.316873 
L 227.444879 274.485245 
L 229.388918 274.403994 
L 231.332957 274.161196 
L 233.276996 271.691517 
L 235.221035 272.2077 
L 237.165075 270.085945 
L 239.109114 270.621993 
L 241.053153 267.907557 
L 242.997192 266.231724 
L 244.941231 269.809182 
L 246.885271 276.468791 
L 248.82931 274.551539 
L 250.773349 276.55209 
L 252.717388 276.131295 
L 254.661427 276.37047 
L 256.605467 277.326365 
L 262.437584 277.326365 
L 264.381623 274.585725 
L 266.325663 267.55173 
L 268.269702 275.455426 
L 270.213741 273.327539 
L 272.15778 265.85563 
L 274.101819 266.094603 
L 276.045859 273.795208 
L 277.989898 261.308718 
L 279.933937 241.159746 
L 281.877976 229.794091 
L 283.822015 262.25528 
L 285.766055 270.525091 
L 287.710094 266.561955 
L 289.654133 270.636154 
L 291.598172 274.063288 
L 293.542211 274.988768 
L 295.486251 277.326365 
L 297.43029 277.326365 
L 299.374329 276.37047 
L 301.318368 277.326365 
L 309.094525 277.326365 
L 311.038564 276.542041 
L 312.982603 277.326365 
L 314.926642 264.670231 
L 316.870682 272.065344 
L 318.814721 273.109592 
L 320.75876 273.281937 
L 322.702799 271.778908 
L 324.646838 261.991201 
L 326.590878 274.914569 
L 328.534917 274.191871 
L 330.478956 274.506534 
L 332.422995 274.613912 
L 334.367034 267.734739 
L 336.311074 272.947224 
L 338.255113 275.92903 
L 342.143191 277.326365 
L 344.08723 277.326365 
L 346.03127 274.385151 
L 347.975309 277.326365 
L 349.919348 276.881763 
L 351.863387 277.326365 
L 357.695505 277.326365 
L 359.639544 277.192984 
L 361.583583 277.326365 
L 363.527622 276.570541 
L 365.471662 273.326155 
L 367.415701 265.300856 
L 369.35974 257.764849 
L 371.303779 266.171371 
L 373.247818 271.018497 
L 375.191857 267.851437 
L 377.135897 240.544349 
L 379.079936 249.47144 
L 381.023975 266.3663 
L 382.968014 271.326732 
L 384.912053 262.031583 
L 386.856093 264.966425 
L 388.800132 277.015143 
L 390.744171 276.837302 
L 392.68821 276.881763 
L 392.68821 276.881763 
" style="fill:none;stroke:#1f77b4;stroke-linecap:square;stroke-width:1.5;"/>
   </g>
   <g id="line2d_44">
    <path clip-path="url(#pbe90537320)" d="M 68.033665 277.326365 
L 69.977704 273.53681 
L 71.921743 277.326365 
L 73.865782 277.326365 
L 75.809822 276.36055 
L 77.753861 268.343978 
L 79.6979 266.668421 
L 81.641939 269.938902 
L 83.585978 271.52283 
L 85.530018 271.51416 
L 87.474057 275.022231 
L 89.418096 273.480377 
L 93.306174 271.453253 
L 95.250213 273.446659 
L 97.194253 271.459877 
L 99.138292 257.525271 
L 101.082331 269.915063 
L 103.02637 274.187785 
L 104.970409 275.984767 
L 106.914449 276.149015 
L 108.858488 275.331935 
L 110.802527 276.732267 
L 112.746566 269.747256 
L 114.690605 277.326365 
L 120.522723 277.326365 
L 122.466762 277.003223 
L 124.410801 276.12299 
L 126.354841 277.130624 
L 128.29888 273.692703 
L 130.242919 264.763709 
L 132.186958 272.52189 
L 134.130997 275.913213 
L 136.075037 275.383582 
L 138.019076 276.273958 
L 139.963115 272.90628 
L 141.907154 269.118203 
L 143.851193 271.236111 
L 145.795233 254.853532 
L 147.739272 264.960372 
L 149.683311 273.199526 
L 151.62735 277.009041 
L 155.515429 277.310876 
L 157.459468 270.259737 
L 159.403507 271.620683 
L 161.347546 277.242849 
L 163.291585 276.96393 
L 165.235624 277.326365 
L 167.179664 272.08752 
L 169.123703 260.968121 
L 171.067742 254.364995 
L 173.011781 275.401288 
L 174.95582 275.115199 
L 176.89986 275.930377 
L 178.843899 275.969237 
L 180.787938 270.515761 
L 182.731977 276.07001 
L 184.676016 270.435944 
L 186.620056 273.213437 
L 188.564095 269.906886 
L 190.508134 272.513735 
L 192.452173 263.074084 
L 194.396212 271.40772 
L 196.340252 272.867415 
L 198.284291 268.906569 
L 200.22833 268.619319 
L 202.172369 273.681353 
L 204.116408 275.115771 
L 206.060448 276.81442 
L 208.004487 277.326365 
L 217.724683 277.268782 
L 219.668722 276.737297 
L 221.612761 269.347418 
L 223.5568 275.463397 
L 225.50084 274.087348 
L 227.444879 275.774529 
L 229.388918 275.230721 
L 231.332957 269.218823 
L 233.276996 265.379531 
L 235.221035 271.437957 
L 237.165075 257.465558 
L 239.109114 265.967238 
L 241.053153 257.430065 
L 242.997192 273.723589 
L 244.941231 269.610098 
L 246.885271 276.921948 
L 248.82931 270.832298 
L 250.773349 277.172892 
L 254.661427 276.158095 
L 256.605467 277.326365 
L 262.437584 277.326365 
L 264.381623 275.967859 
L 266.325663 266.849654 
L 268.269702 275.551165 
L 270.213741 272.926337 
L 272.15778 264.66818 
L 274.101819 264.562401 
L 276.045859 273.81299 
L 277.989898 240.25633 
L 279.933937 178.408719 
L 281.877976 167.82091 
L 283.822015 255.293295 
L 285.766055 269.480413 
L 287.710094 265.060313 
L 289.654133 270.257913 
L 291.598172 273.596756 
L 293.542211 276.108417 
L 295.486251 277.326365 
L 297.43029 277.326365 
L 299.374329 276.158095 
L 301.318368 277.326365 
L 309.094525 277.326365 
L 311.038564 276.585812 
L 312.982603 277.326365 
L 314.926642 274.165156 
L 316.870682 276.254187 
L 318.814721 275.318248 
L 320.75876 275.899812 
L 322.702799 270.393664 
L 324.646838 259.889159 
L 326.590878 271.188326 
L 328.534917 272.934151 
L 330.478956 274.389743 
L 332.422995 275.643917 
L 334.367034 268.253473 
L 336.311074 270.647535 
L 338.255113 277.129428 
L 340.199152 276.990219 
L 342.143191 277.326365 
L 344.08723 277.326365 
L 346.03127 276.982512 
L 347.975309 277.326365 
L 359.639544 277.187752 
L 361.583583 277.326365 
L 363.527622 276.99535 
L 365.471662 267.868649 
L 367.415701 256.853031 
L 369.35974 241.04667 
L 371.303779 270.848191 
L 373.247818 266.773903 
L 375.191857 273.904595 
L 377.135897 267.957588 
L 379.079936 270.822208 
L 381.023975 272.568196 
L 382.968014 266.945484 
L 384.912053 248.87023 
L 386.856093 251.808619 
L 388.800132 277.267405 
L 390.744171 276.818116 
L 392.68821 276.985054 
L 392.68821 276.985054 
" style="fill:none;stroke:#ff7f0e;stroke-linecap:square;stroke-width:1.5;"/>
   </g>
   <g id="patch_9">
    <path d="M 51.800938 282.801638 
L 51.800938 162.345638 
" style="fill:none;stroke:#000000;stroke-linecap:square;stroke-linejoin:miter;stroke-width:0.8;"/>
   </g>
   <g id="patch_10">
    <path d="M 408.920938 282.801638 
L 408.920938 162.345638 
" style="fill:none;stroke:#000000;stroke-linecap:square;stroke-linejoin:miter;stroke-width:0.8;"/>
   </g>
   <g id="patch_11">
    <path d="M 51.800938 282.801637 
L 408.920937 282.801637 
" style="fill:none;stroke:#000000;stroke-linecap:square;stroke-linejoin:miter;stroke-width:0.8;"/>
   </g>
   <g id="patch_12">
    <path d="M 51.800938 162.345637 
L 408.920937 162.345637 
" style="fill:none;stroke:#000000;stroke-linecap:square;stroke-linejoin:miter;stroke-width:0.8;"/>
   </g>
   <g id="legend_2">
    <g id="patch_13">
     <path d="M 297.664688 200.258137 
L 401.920938 200.258137 
Q 403.920938 200.258137 403.920938 198.258137 
L 403.920938 169.345637 
Q 403.920938 167.345637 401.920938 167.345637 
L 297.664688 167.345637 
Q 295.664688 167.345637 295.664688 169.345637 
L 295.664688 198.258137 
Q 295.664688 200.258137 297.664688 200.258137 
z
" style="fill:#ffffff;opacity:0.8;stroke:#cccccc;stroke-linejoin:miter;"/>
    </g>
    <g id="line2d_45">
     <path d="M 299.664688 175.444075 
L 319.664688 175.444075 
" style="fill:none;stroke:#1f77b4;stroke-linecap:square;stroke-width:1.5;"/>
    </g>
    <g id="line2d_46"/>
    <g id="text_31">
     <!-- MiD17_mean -->
     <g transform="translate(327.664688 178.944075)scale(0.1 -0.1)">
      <use xlink:href="#DejaVuSans-77"/>
      <use x="86.279297" xlink:href="#DejaVuSans-105"/>
      <use x="114.0625" xlink:href="#DejaVuSans-68"/>
      <use x="191.064453" xlink:href="#DejaVuSans-49"/>
      <use x="254.6875" xlink:href="#DejaVuSans-55"/>
      <use x="318.310547" xlink:href="#DejaVuSans-95"/>
      <use x="368.310547" xlink:href="#DejaVuSans-109"/>
      <use x="465.722656" xlink:href="#DejaVuSans-101"/>
      <use x="527.246094" xlink:href="#DejaVuSans-97"/>
      <use x="588.525391" xlink:href="#DejaVuSans-110"/>
     </g>
    </g>
    <g id="line2d_47">
     <path d="M 299.664688 190.400325 
L 319.664688 190.400325 
" style="fill:none;stroke:#ff7f0e;stroke-linecap:square;stroke-width:1.5;"/>
    </g>
    <g id="line2d_48"/>
    <g id="text_32">
     <!-- MiD17_wMean -->
     <defs>
      <path d="M 4.203125 54.6875 
L 13.1875 54.6875 
L 24.421875 12.015625 
L 35.59375 54.6875 
L 46.1875 54.6875 
L 57.421875 12.015625 
L 68.609375 54.6875 
L 77.59375 54.6875 
L 63.28125 0 
L 52.6875 0 
L 40.921875 44.828125 
L 29.109375 0 
L 18.5 0 
z
" id="DejaVuSans-119"/>
     </defs>
     <g transform="translate(327.664688 193.900325)scale(0.1 -0.1)">
      <use xlink:href="#DejaVuSans-77"/>
      <use x="86.279297" xlink:href="#DejaVuSans-105"/>
      <use x="114.0625" xlink:href="#DejaVuSans-68"/>
      <use x="191.064453" xlink:href="#DejaVuSans-49"/>
      <use x="254.6875" xlink:href="#DejaVuSans-55"/>
      <use x="318.310547" xlink:href="#DejaVuSans-95"/>
      <use x="368.310547" xlink:href="#DejaVuSans-119"/>
      <use x="450.097656" xlink:href="#DejaVuSans-77"/>
      <use x="536.376953" xlink:href="#DejaVuSans-101"/>
      <use x="597.900391" xlink:href="#DejaVuSans-97"/>
      <use x="659.179688" xlink:href="#DejaVuSans-110"/>
     </g>
    </g>
   </g>
  </g>
 </g>
 <defs>
  <clipPath id="pc7f8fd4bc4">
   <rect height="120.456" width="357.12" x="51.800938" y="17.798437"/>
  </clipPath>
  <clipPath id="pbe90537320">
   <rect height="120.456" width="357.12" x="51.800938" y="162.345637"/>
  </clipPath>
 </defs>
</svg>
