<?xml version="1.0" encoding="utf-8" standalone="no"?>
<!DOCTYPE svg PUBLIC "-//W3C//DTD SVG 1.1//EN"
  "http://www.w3.org/Graphics/SVG/1.1/DTD/svg11.dtd">
<!-- Created with matplotlib (https://matplotlib.org/) -->
<svg height="332.6645pt" version="1.1" viewBox="0 0 416.120937 332.6645" width="416.120937pt" xmlns="http://www.w3.org/2000/svg" xmlns:xlink="http://www.w3.org/1999/xlink">
 <defs>
  <style type="text/css">
*{stroke-linecap:butt;stroke-linejoin:round;}
  </style>
 </defs>
 <g id="figure_1">
  <g id="patch_1">
   <path d="M 0 332.6645 
L 416.120937 332.6645 
L 416.120937 0 
L 0 0 
z
" style="fill:#ffffff;"/>
  </g>
  <g id="axes_1">
   <g id="patch_2">
    <path d="M 51.800938 138.758437 
L 408.920938 138.758437 
L 408.920938 17.798437 
L 51.800938 17.798437 
z
" style="fill:#ffffff;"/>
   </g>
   <g id="matplotlib.axis_1">
    <g id="xtick_1">
     <g id="line2d_1">
      <defs>
       <path d="M 0 0 
L 0 3.5 
" id="mb3478392d3" style="stroke:#000000;stroke-width:0.8;"/>
      </defs>
      <g>
       <use style="stroke:#000000;stroke-width:0.8;" x="68.033665" xlink:href="#mb3478392d3" y="138.758437"/>
      </g>
     </g>
    </g>
    <g id="xtick_2">
     <g id="line2d_2">
      <g>
       <use style="stroke:#000000;stroke-width:0.8;" x="91.362135" xlink:href="#mb3478392d3" y="138.758437"/>
      </g>
     </g>
    </g>
    <g id="xtick_3">
     <g id="line2d_3">
      <g>
       <use style="stroke:#000000;stroke-width:0.8;" x="114.690605" xlink:href="#mb3478392d3" y="138.758437"/>
      </g>
     </g>
    </g>
    <g id="xtick_4">
     <g id="line2d_4">
      <g>
       <use style="stroke:#000000;stroke-width:0.8;" x="138.019076" xlink:href="#mb3478392d3" y="138.758437"/>
      </g>
     </g>
    </g>
    <g id="xtick_5">
     <g id="line2d_5">
      <g>
       <use style="stroke:#000000;stroke-width:0.8;" x="161.347546" xlink:href="#mb3478392d3" y="138.758437"/>
      </g>
     </g>
    </g>
    <g id="xtick_6">
     <g id="line2d_6">
      <g>
       <use style="stroke:#000000;stroke-width:0.8;" x="184.676016" xlink:href="#mb3478392d3" y="138.758437"/>
      </g>
     </g>
    </g>
    <g id="xtick_7">
     <g id="line2d_7">
      <g>
       <use style="stroke:#000000;stroke-width:0.8;" x="208.004487" xlink:href="#mb3478392d3" y="138.758437"/>
      </g>
     </g>
    </g>
    <g id="xtick_8">
     <g id="line2d_8">
      <g>
       <use style="stroke:#000000;stroke-width:0.8;" x="231.332957" xlink:href="#mb3478392d3" y="138.758437"/>
      </g>
     </g>
    </g>
    <g id="xtick_9">
     <g id="line2d_9">
      <g>
       <use style="stroke:#000000;stroke-width:0.8;" x="254.661427" xlink:href="#mb3478392d3" y="138.758437"/>
      </g>
     </g>
    </g>
    <g id="xtick_10">
     <g id="line2d_10">
      <g>
       <use style="stroke:#000000;stroke-width:0.8;" x="277.989898" xlink:href="#mb3478392d3" y="138.758437"/>
      </g>
     </g>
    </g>
    <g id="xtick_11">
     <g id="line2d_11">
      <g>
       <use style="stroke:#000000;stroke-width:0.8;" x="301.318368" xlink:href="#mb3478392d3" y="138.758437"/>
      </g>
     </g>
    </g>
    <g id="xtick_12">
     <g id="line2d_12">
      <g>
       <use style="stroke:#000000;stroke-width:0.8;" x="324.646838" xlink:href="#mb3478392d3" y="138.758437"/>
      </g>
     </g>
    </g>
    <g id="xtick_13">
     <g id="line2d_13">
      <g>
       <use style="stroke:#000000;stroke-width:0.8;" x="347.975309" xlink:href="#mb3478392d3" y="138.758437"/>
      </g>
     </g>
    </g>
    <g id="xtick_14">
     <g id="line2d_14">
      <g>
       <use style="stroke:#000000;stroke-width:0.8;" x="371.303779" xlink:href="#mb3478392d3" y="138.758437"/>
      </g>
     </g>
    </g>
   </g>
   <g id="matplotlib.axis_2">
    <g id="ytick_1">
     <g id="line2d_15">
      <defs>
       <path d="M 0 0 
L -3.5 0 
" id="m5e89962aee" style="stroke:#000000;stroke-width:0.8;"/>
      </defs>
      <g>
       <use style="stroke:#000000;stroke-width:0.8;" x="51.800938" xlink:href="#m5e89962aee" y="133.260256"/>
      </g>
     </g>
     <g id="text_1">
      <!-- $\mathdefault{0}$ -->
      <defs>
       <path d="M 31.78125 66.40625 
Q 24.171875 66.40625 20.328125 58.90625 
Q 16.5 51.421875 16.5 36.375 
Q 16.5 21.390625 20.328125 13.890625 
Q 24.171875 6.390625 31.78125 6.390625 
Q 39.453125 6.390625 43.28125 13.890625 
Q 47.125 21.390625 47.125 36.375 
Q 47.125 51.421875 43.28125 58.90625 
Q 39.453125 66.40625 31.78125 66.40625 
z
M 31.78125 74.21875 
Q 44.046875 74.21875 50.515625 64.515625 
Q 56.984375 54.828125 56.984375 36.375 
Q 56.984375 17.96875 50.515625 8.265625 
Q 44.046875 -1.421875 31.78125 -1.421875 
Q 19.53125 -1.421875 13.0625 8.265625 
Q 6.59375 17.96875 6.59375 36.375 
Q 6.59375 54.828125 13.0625 64.515625 
Q 19.53125 74.21875 31.78125 74.21875 
z
" id="DejaVuSans-48"/>
      </defs>
      <g transform="translate(38.400938 137.059474)scale(0.1 -0.1)">
       <use transform="translate(0 0.78125)" xlink:href="#DejaVuSans-48"/>
      </g>
     </g>
    </g>
    <g id="ytick_2">
     <g id="line2d_16">
      <g>
       <use style="stroke:#000000;stroke-width:0.8;" x="51.800938" xlink:href="#m5e89962aee" y="109.982189"/>
      </g>
     </g>
     <g id="text_2">
      <!-- $\mathdefault{2}$ -->
      <defs>
       <path d="M 19.1875 8.296875 
L 53.609375 8.296875 
L 53.609375 0 
L 7.328125 0 
L 7.328125 8.296875 
Q 12.9375 14.109375 22.625 23.890625 
Q 32.328125 33.6875 34.8125 36.53125 
Q 39.546875 41.84375 41.421875 45.53125 
Q 43.3125 49.21875 43.3125 52.78125 
Q 43.3125 58.59375 39.234375 62.25 
Q 35.15625 65.921875 28.609375 65.921875 
Q 23.96875 65.921875 18.8125 64.3125 
Q 13.671875 62.703125 7.8125 59.421875 
L 7.8125 69.390625 
Q 13.765625 71.78125 18.9375 73 
Q 24.125 74.21875 28.421875 74.21875 
Q 39.75 74.21875 46.484375 68.546875 
Q 53.21875 62.890625 53.21875 53.421875 
Q 53.21875 48.921875 51.53125 44.890625 
Q 49.859375 40.875 45.40625 35.40625 
Q 44.1875 33.984375 37.640625 27.21875 
Q 31.109375 20.453125 19.1875 8.296875 
z
" id="DejaVuSans-50"/>
      </defs>
      <g transform="translate(38.400938 113.781408)scale(0.1 -0.1)">
       <use transform="translate(0 0.78125)" xlink:href="#DejaVuSans-50"/>
      </g>
     </g>
    </g>
    <g id="ytick_3">
     <g id="line2d_17">
      <g>
       <use style="stroke:#000000;stroke-width:0.8;" x="51.800938" xlink:href="#m5e89962aee" y="86.704122"/>
      </g>
     </g>
     <g id="text_3">
      <!-- $\mathdefault{4}$ -->
      <defs>
       <path d="M 37.796875 64.3125 
L 12.890625 25.390625 
L 37.796875 25.390625 
z
M 35.203125 72.90625 
L 47.609375 72.90625 
L 47.609375 25.390625 
L 58.015625 25.390625 
L 58.015625 17.1875 
L 47.609375 17.1875 
L 47.609375 0 
L 37.796875 0 
L 37.796875 17.1875 
L 4.890625 17.1875 
L 4.890625 26.703125 
z
" id="DejaVuSans-52"/>
      </defs>
      <g transform="translate(38.400938 90.503341)scale(0.1 -0.1)">
       <use transform="translate(0 0.09375)" xlink:href="#DejaVuSans-52"/>
      </g>
     </g>
    </g>
    <g id="ytick_4">
     <g id="line2d_18">
      <g>
       <use style="stroke:#000000;stroke-width:0.8;" x="51.800938" xlink:href="#m5e89962aee" y="63.426055"/>
      </g>
     </g>
     <g id="text_4">
      <!-- $\mathdefault{6}$ -->
      <defs>
       <path d="M 33.015625 40.375 
Q 26.375 40.375 22.484375 35.828125 
Q 18.609375 31.296875 18.609375 23.390625 
Q 18.609375 15.53125 22.484375 10.953125 
Q 26.375 6.390625 33.015625 6.390625 
Q 39.65625 6.390625 43.53125 10.953125 
Q 47.40625 15.53125 47.40625 23.390625 
Q 47.40625 31.296875 43.53125 35.828125 
Q 39.65625 40.375 33.015625 40.375 
z
M 52.59375 71.296875 
L 52.59375 62.3125 
Q 48.875 64.0625 45.09375 64.984375 
Q 41.3125 65.921875 37.59375 65.921875 
Q 27.828125 65.921875 22.671875 59.328125 
Q 17.53125 52.734375 16.796875 39.40625 
Q 19.671875 43.65625 24.015625 45.921875 
Q 28.375 48.1875 33.59375 48.1875 
Q 44.578125 48.1875 50.953125 41.515625 
Q 57.328125 34.859375 57.328125 23.390625 
Q 57.328125 12.15625 50.6875 5.359375 
Q 44.046875 -1.421875 33.015625 -1.421875 
Q 20.359375 -1.421875 13.671875 8.265625 
Q 6.984375 17.96875 6.984375 36.375 
Q 6.984375 53.65625 15.1875 63.9375 
Q 23.390625 74.21875 37.203125 74.21875 
Q 40.921875 74.21875 44.703125 73.484375 
Q 48.484375 72.75 52.59375 71.296875 
z
" id="DejaVuSans-54"/>
      </defs>
      <g transform="translate(38.400938 67.225274)scale(0.1 -0.1)">
       <use transform="translate(0 0.78125)" xlink:href="#DejaVuSans-54"/>
      </g>
     </g>
    </g>
    <g id="ytick_5">
     <g id="line2d_19">
      <g>
       <use style="stroke:#000000;stroke-width:0.8;" x="51.800938" xlink:href="#m5e89962aee" y="40.147988"/>
      </g>
     </g>
     <g id="text_5">
      <!-- $\mathdefault{8}$ -->
      <defs>
       <path d="M 31.78125 34.625 
Q 24.75 34.625 20.71875 30.859375 
Q 16.703125 27.09375 16.703125 20.515625 
Q 16.703125 13.921875 20.71875 10.15625 
Q 24.75 6.390625 31.78125 6.390625 
Q 38.8125 6.390625 42.859375 10.171875 
Q 46.921875 13.96875 46.921875 20.515625 
Q 46.921875 27.09375 42.890625 30.859375 
Q 38.875 34.625 31.78125 34.625 
z
M 21.921875 38.8125 
Q 15.578125 40.375 12.03125 44.71875 
Q 8.5 49.078125 8.5 55.328125 
Q 8.5 64.0625 14.71875 69.140625 
Q 20.953125 74.21875 31.78125 74.21875 
Q 42.671875 74.21875 48.875 69.140625 
Q 55.078125 64.0625 55.078125 55.328125 
Q 55.078125 49.078125 51.53125 44.71875 
Q 48 40.375 41.703125 38.8125 
Q 48.828125 37.15625 52.796875 32.3125 
Q 56.78125 27.484375 56.78125 20.515625 
Q 56.78125 9.90625 50.3125 4.234375 
Q 43.84375 -1.421875 31.78125 -1.421875 
Q 19.734375 -1.421875 13.25 4.234375 
Q 6.78125 9.90625 6.78125 20.515625 
Q 6.78125 27.484375 10.78125 32.3125 
Q 14.796875 37.15625 21.921875 38.8125 
z
M 18.3125 54.390625 
Q 18.3125 48.734375 21.84375 45.5625 
Q 25.390625 42.390625 31.78125 42.390625 
Q 38.140625 42.390625 41.71875 45.5625 
Q 45.3125 48.734375 45.3125 54.390625 
Q 45.3125 60.0625 41.71875 63.234375 
Q 38.140625 66.40625 31.78125 66.40625 
Q 25.390625 66.40625 21.84375 63.234375 
Q 18.3125 60.0625 18.3125 54.390625 
z
" id="DejaVuSans-56"/>
      </defs>
      <g transform="translate(38.400938 43.947207)scale(0.1 -0.1)">
       <use transform="translate(0 0.78125)" xlink:href="#DejaVuSans-56"/>
      </g>
     </g>
    </g>
    <g id="text_6">
     <!-- Sum of all trips  -->
     <defs>
      <path d="M 53.515625 70.515625 
L 53.515625 60.890625 
Q 47.90625 63.578125 42.921875 64.890625 
Q 37.9375 66.21875 33.296875 66.21875 
Q 25.25 66.21875 20.875 63.09375 
Q 16.5 59.96875 16.5 54.203125 
Q 16.5 49.359375 19.40625 46.890625 
Q 22.3125 44.4375 30.421875 42.921875 
L 36.375 41.703125 
Q 47.40625 39.59375 52.65625 34.296875 
Q 57.90625 29 57.90625 20.125 
Q 57.90625 9.515625 50.796875 4.046875 
Q 43.703125 -1.421875 29.984375 -1.421875 
Q 24.8125 -1.421875 18.96875 -0.25 
Q 13.140625 0.921875 6.890625 3.21875 
L 6.890625 13.375 
Q 12.890625 10.015625 18.65625 8.296875 
Q 24.421875 6.59375 29.984375 6.59375 
Q 38.421875 6.59375 43.015625 9.90625 
Q 47.609375 13.234375 47.609375 19.390625 
Q 47.609375 24.75 44.3125 27.78125 
Q 41.015625 30.8125 33.5 32.328125 
L 27.484375 33.5 
Q 16.453125 35.6875 11.515625 40.375 
Q 6.59375 45.0625 6.59375 53.421875 
Q 6.59375 63.09375 13.40625 68.65625 
Q 20.21875 74.21875 32.171875 74.21875 
Q 37.3125 74.21875 42.625 73.28125 
Q 47.953125 72.359375 53.515625 70.515625 
z
" id="DejaVuSans-83"/>
      <path d="M 8.5 21.578125 
L 8.5 54.6875 
L 17.484375 54.6875 
L 17.484375 21.921875 
Q 17.484375 14.15625 20.5 10.265625 
Q 23.53125 6.390625 29.59375 6.390625 
Q 36.859375 6.390625 41.078125 11.03125 
Q 45.3125 15.671875 45.3125 23.6875 
L 45.3125 54.6875 
L 54.296875 54.6875 
L 54.296875 0 
L 45.3125 0 
L 45.3125 8.40625 
Q 42.046875 3.421875 37.71875 1 
Q 33.40625 -1.421875 27.6875 -1.421875 
Q 18.265625 -1.421875 13.375 4.4375 
Q 8.5 10.296875 8.5 21.578125 
z
M 31.109375 56 
z
" id="DejaVuSans-117"/>
      <path d="M 52 44.1875 
Q 55.375 50.25 60.0625 53.125 
Q 64.75 56 71.09375 56 
Q 79.640625 56 84.28125 50.015625 
Q 88.921875 44.046875 88.921875 33.015625 
L 88.921875 0 
L 79.890625 0 
L 79.890625 32.71875 
Q 79.890625 40.578125 77.09375 44.375 
Q 74.3125 48.1875 68.609375 48.1875 
Q 61.625 48.1875 57.5625 43.546875 
Q 53.515625 38.921875 53.515625 30.90625 
L 53.515625 0 
L 44.484375 0 
L 44.484375 32.71875 
Q 44.484375 40.625 41.703125 44.40625 
Q 38.921875 48.1875 33.109375 48.1875 
Q 26.21875 48.1875 22.15625 43.53125 
Q 18.109375 38.875 18.109375 30.90625 
L 18.109375 0 
L 9.078125 0 
L 9.078125 54.6875 
L 18.109375 54.6875 
L 18.109375 46.1875 
Q 21.1875 51.21875 25.484375 53.609375 
Q 29.78125 56 35.6875 56 
Q 41.65625 56 45.828125 52.96875 
Q 50 49.953125 52 44.1875 
z
" id="DejaVuSans-109"/>
      <path id="DejaVuSans-32"/>
      <path d="M 30.609375 48.390625 
Q 23.390625 48.390625 19.1875 42.75 
Q 14.984375 37.109375 14.984375 27.296875 
Q 14.984375 17.484375 19.15625 11.84375 
Q 23.34375 6.203125 30.609375 6.203125 
Q 37.796875 6.203125 41.984375 11.859375 
Q 46.1875 17.53125 46.1875 27.296875 
Q 46.1875 37.015625 41.984375 42.703125 
Q 37.796875 48.390625 30.609375 48.390625 
z
M 30.609375 56 
Q 42.328125 56 49.015625 48.375 
Q 55.71875 40.765625 55.71875 27.296875 
Q 55.71875 13.875 49.015625 6.21875 
Q 42.328125 -1.421875 30.609375 -1.421875 
Q 18.84375 -1.421875 12.171875 6.21875 
Q 5.515625 13.875 5.515625 27.296875 
Q 5.515625 40.765625 12.171875 48.375 
Q 18.84375 56 30.609375 56 
z
" id="DejaVuSans-111"/>
      <path d="M 37.109375 75.984375 
L 37.109375 68.5 
L 28.515625 68.5 
Q 23.6875 68.5 21.796875 66.546875 
Q 19.921875 64.59375 19.921875 59.515625 
L 19.921875 54.6875 
L 34.71875 54.6875 
L 34.71875 47.703125 
L 19.921875 47.703125 
L 19.921875 0 
L 10.890625 0 
L 10.890625 47.703125 
L 2.296875 47.703125 
L 2.296875 54.6875 
L 10.890625 54.6875 
L 10.890625 58.5 
Q 10.890625 67.625 15.140625 71.796875 
Q 19.390625 75.984375 28.609375 75.984375 
z
" id="DejaVuSans-102"/>
      <path d="M 34.28125 27.484375 
Q 23.390625 27.484375 19.1875 25 
Q 14.984375 22.515625 14.984375 16.5 
Q 14.984375 11.71875 18.140625 8.90625 
Q 21.296875 6.109375 26.703125 6.109375 
Q 34.1875 6.109375 38.703125 11.40625 
Q 43.21875 16.703125 43.21875 25.484375 
L 43.21875 27.484375 
z
M 52.203125 31.203125 
L 52.203125 0 
L 43.21875 0 
L 43.21875 8.296875 
Q 40.140625 3.328125 35.546875 0.953125 
Q 30.953125 -1.421875 24.3125 -1.421875 
Q 15.921875 -1.421875 10.953125 3.296875 
Q 6 8.015625 6 15.921875 
Q 6 25.140625 12.171875 29.828125 
Q 18.359375 34.515625 30.609375 34.515625 
L 43.21875 34.515625 
L 43.21875 35.40625 
Q 43.21875 41.609375 39.140625 45 
Q 35.0625 48.390625 27.6875 48.390625 
Q 23 48.390625 18.546875 47.265625 
Q 14.109375 46.140625 10.015625 43.890625 
L 10.015625 52.203125 
Q 14.9375 54.109375 19.578125 55.046875 
Q 24.21875 56 28.609375 56 
Q 40.484375 56 46.34375 49.84375 
Q 52.203125 43.703125 52.203125 31.203125 
z
" id="DejaVuSans-97"/>
      <path d="M 9.421875 75.984375 
L 18.40625 75.984375 
L 18.40625 0 
L 9.421875 0 
z
" id="DejaVuSans-108"/>
      <path d="M 18.3125 70.21875 
L 18.3125 54.6875 
L 36.8125 54.6875 
L 36.8125 47.703125 
L 18.3125 47.703125 
L 18.3125 18.015625 
Q 18.3125 11.328125 20.140625 9.421875 
Q 21.96875 7.515625 27.59375 7.515625 
L 36.8125 7.515625 
L 36.8125 0 
L 27.59375 0 
Q 17.1875 0 13.234375 3.875 
Q 9.28125 7.765625 9.28125 18.015625 
L 9.28125 47.703125 
L 2.6875 47.703125 
L 2.6875 54.6875 
L 9.28125 54.6875 
L 9.28125 70.21875 
z
" id="DejaVuSans-116"/>
      <path d="M 41.109375 46.296875 
Q 39.59375 47.171875 37.8125 47.578125 
Q 36.03125 48 33.890625 48 
Q 26.265625 48 22.1875 43.046875 
Q 18.109375 38.09375 18.109375 28.8125 
L 18.109375 0 
L 9.078125 0 
L 9.078125 54.6875 
L 18.109375 54.6875 
L 18.109375 46.1875 
Q 20.953125 51.171875 25.484375 53.578125 
Q 30.03125 56 36.53125 56 
Q 37.453125 56 38.578125 55.875 
Q 39.703125 55.765625 41.0625 55.515625 
z
" id="DejaVuSans-114"/>
      <path d="M 9.421875 54.6875 
L 18.40625 54.6875 
L 18.40625 0 
L 9.421875 0 
z
M 9.421875 75.984375 
L 18.40625 75.984375 
L 18.40625 64.59375 
L 9.421875 64.59375 
z
" id="DejaVuSans-105"/>
      <path d="M 18.109375 8.203125 
L 18.109375 -20.796875 
L 9.078125 -20.796875 
L 9.078125 54.6875 
L 18.109375 54.6875 
L 18.109375 46.390625 
Q 20.953125 51.265625 25.265625 53.625 
Q 29.59375 56 35.59375 56 
Q 45.5625 56 51.78125 48.09375 
Q 58.015625 40.1875 58.015625 27.296875 
Q 58.015625 14.40625 51.78125 6.484375 
Q 45.5625 -1.421875 35.59375 -1.421875 
Q 29.59375 -1.421875 25.265625 0.953125 
Q 20.953125 3.328125 18.109375 8.203125 
z
M 48.6875 27.296875 
Q 48.6875 37.203125 44.609375 42.84375 
Q 40.53125 48.484375 33.40625 48.484375 
Q 26.265625 48.484375 22.1875 42.84375 
Q 18.109375 37.203125 18.109375 27.296875 
Q 18.109375 17.390625 22.1875 11.75 
Q 26.265625 6.109375 33.40625 6.109375 
Q 40.53125 6.109375 44.609375 11.75 
Q 48.6875 17.390625 48.6875 27.296875 
z
" id="DejaVuSans-112"/>
      <path d="M 44.28125 53.078125 
L 44.28125 44.578125 
Q 40.484375 46.53125 36.375 47.5 
Q 32.28125 48.484375 27.875 48.484375 
Q 21.1875 48.484375 17.84375 46.4375 
Q 14.5 44.390625 14.5 40.28125 
Q 14.5 37.15625 16.890625 35.375 
Q 19.28125 33.59375 26.515625 31.984375 
L 29.59375 31.296875 
Q 39.15625 29.25 43.1875 25.515625 
Q 47.21875 21.78125 47.21875 15.09375 
Q 47.21875 7.46875 41.1875 3.015625 
Q 35.15625 -1.421875 24.609375 -1.421875 
Q 20.21875 -1.421875 15.453125 -0.5625 
Q 10.6875 0.296875 5.421875 2 
L 5.421875 11.28125 
Q 10.40625 8.6875 15.234375 7.390625 
Q 20.0625 6.109375 24.8125 6.109375 
Q 31.15625 6.109375 34.5625 8.28125 
Q 37.984375 10.453125 37.984375 14.40625 
Q 37.984375 18.0625 35.515625 20.015625 
Q 33.0625 21.96875 24.703125 23.78125 
L 21.578125 24.515625 
Q 13.234375 26.265625 9.515625 29.90625 
Q 5.8125 33.546875 5.8125 39.890625 
Q 5.8125 47.609375 11.28125 51.796875 
Q 16.75 56 26.8125 56 
Q 31.78125 56 36.171875 55.265625 
Q 40.578125 54.546875 44.28125 53.078125 
z
" id="DejaVuSans-115"/>
     </defs>
     <g transform="translate(21.123438 117.693281)rotate(-90)scale(0.1 -0.1)">
      <use xlink:href="#DejaVuSans-83"/>
      <use x="63.476562" xlink:href="#DejaVuSans-117"/>
      <use x="126.855469" xlink:href="#DejaVuSans-109"/>
      <use x="224.267578" xlink:href="#DejaVuSans-32"/>
      <use x="256.054688" xlink:href="#DejaVuSans-111"/>
      <use x="317.236328" xlink:href="#DejaVuSans-102"/>
      <use x="352.441406" xlink:href="#DejaVuSans-32"/>
      <use x="384.228516" xlink:href="#DejaVuSans-97"/>
      <use x="445.507812" xlink:href="#DejaVuSans-108"/>
      <use x="473.291016" xlink:href="#DejaVuSans-108"/>
      <use x="501.074219" xlink:href="#DejaVuSans-32"/>
      <use x="532.861328" xlink:href="#DejaVuSans-116"/>
      <use x="572.070312" xlink:href="#DejaVuSans-114"/>
      <use x="613.183594" xlink:href="#DejaVuSans-105"/>
      <use x="640.966797" xlink:href="#DejaVuSans-112"/>
      <use x="704.443359" xlink:href="#DejaVuSans-115"/>
      <use x="756.542969" xlink:href="#DejaVuSans-32"/>
     </g>
     <!--  in sample in km -->
     <defs>
      <path d="M 54.890625 33.015625 
L 54.890625 0 
L 45.90625 0 
L 45.90625 32.71875 
Q 45.90625 40.484375 42.875 44.328125 
Q 39.84375 48.1875 33.796875 48.1875 
Q 26.515625 48.1875 22.3125 43.546875 
Q 18.109375 38.921875 18.109375 30.90625 
L 18.109375 0 
L 9.078125 0 
L 9.078125 54.6875 
L 18.109375 54.6875 
L 18.109375 46.1875 
Q 21.34375 51.125 25.703125 53.5625 
Q 30.078125 56 35.796875 56 
Q 45.21875 56 50.046875 50.171875 
Q 54.890625 44.34375 54.890625 33.015625 
z
" id="DejaVuSans-110"/>
      <path d="M 56.203125 29.59375 
L 56.203125 25.203125 
L 14.890625 25.203125 
Q 15.484375 15.921875 20.484375 11.0625 
Q 25.484375 6.203125 34.421875 6.203125 
Q 39.59375 6.203125 44.453125 7.46875 
Q 49.3125 8.734375 54.109375 11.28125 
L 54.109375 2.78125 
Q 49.265625 0.734375 44.1875 -0.34375 
Q 39.109375 -1.421875 33.890625 -1.421875 
Q 20.796875 -1.421875 13.15625 6.1875 
Q 5.515625 13.8125 5.515625 26.8125 
Q 5.515625 40.234375 12.765625 48.109375 
Q 20.015625 56 32.328125 56 
Q 43.359375 56 49.78125 48.890625 
Q 56.203125 41.796875 56.203125 29.59375 
z
M 47.21875 32.234375 
Q 47.125 39.59375 43.09375 43.984375 
Q 39.0625 48.390625 32.421875 48.390625 
Q 24.90625 48.390625 20.390625 44.140625 
Q 15.875 39.890625 15.1875 32.171875 
z
" id="DejaVuSans-101"/>
      <path d="M 9.078125 75.984375 
L 18.109375 75.984375 
L 18.109375 31.109375 
L 44.921875 54.6875 
L 56.390625 54.6875 
L 27.390625 29.109375 
L 57.625 0 
L 45.90625 0 
L 18.109375 26.703125 
L 18.109375 0 
L 9.078125 0 
z
" id="DejaVuSans-107"/>
     </defs>
     <g transform="translate(32.32125 119.694844)rotate(-90)scale(0.1 -0.1)">
      <use xlink:href="#DejaVuSans-32"/>
      <use x="31.787109" xlink:href="#DejaVuSans-105"/>
      <use x="59.570312" xlink:href="#DejaVuSans-110"/>
      <use x="122.949219" xlink:href="#DejaVuSans-32"/>
      <use x="154.736328" xlink:href="#DejaVuSans-115"/>
      <use x="206.835938" xlink:href="#DejaVuSans-97"/>
      <use x="268.115234" xlink:href="#DejaVuSans-109"/>
      <use x="365.527344" xlink:href="#DejaVuSans-112"/>
      <use x="429.003906" xlink:href="#DejaVuSans-108"/>
      <use x="456.787109" xlink:href="#DejaVuSans-101"/>
      <use x="518.310547" xlink:href="#DejaVuSans-32"/>
      <use x="550.097656" xlink:href="#DejaVuSans-105"/>
      <use x="577.880859" xlink:href="#DejaVuSans-110"/>
      <use x="641.259766" xlink:href="#DejaVuSans-32"/>
      <use x="673.046875" xlink:href="#DejaVuSans-107"/>
      <use x="730.957031" xlink:href="#DejaVuSans-109"/>
     </g>
    </g>
    <g id="text_7">
     <!-- $\times\mathdefault{10^{2}}\mathdefault{}$ -->
     <defs>
      <path d="M 70.125 53.71875 
L 47.796875 31.296875 
L 70.125 8.984375 
L 64.3125 3.078125 
L 41.890625 25.484375 
L 19.484375 3.078125 
L 13.71875 8.984375 
L 35.984375 31.296875 
L 13.71875 53.71875 
L 19.484375 59.625 
L 41.890625 37.203125 
L 64.3125 59.625 
z
" id="DejaVuSans-215"/>
      <path d="M 12.40625 8.296875 
L 28.515625 8.296875 
L 28.515625 63.921875 
L 10.984375 60.40625 
L 10.984375 69.390625 
L 28.421875 72.90625 
L 38.28125 72.90625 
L 38.28125 8.296875 
L 54.390625 8.296875 
L 54.390625 0 
L 12.40625 0 
z
" id="DejaVuSans-49"/>
     </defs>
     <g transform="translate(51.800938 14.798437)scale(0.1 -0.1)">
      <use transform="translate(0 0.765625)" xlink:href="#DejaVuSans-215"/>
      <use transform="translate(83.789062 0.765625)" xlink:href="#DejaVuSans-49"/>
      <use transform="translate(147.412109 0.765625)" xlink:href="#DejaVuSans-48"/>
      <use transform="translate(211.992188 39.046875)scale(0.7)" xlink:href="#DejaVuSans-50"/>
     </g>
    </g>
   </g>
   <g id="line2d_20">
    <path clip-path="url(#p2878bb3975)" d="M 68.033665 133.260256 
L 69.977704 122.203174 
L 71.921743 133.260256 
L 73.865782 133.260256 
L 75.809822 130.237987 
L 77.753861 107.699968 
L 79.6979 102.028406 
L 81.641939 107.659944 
L 83.585978 92.355682 
L 85.530018 92.598938 
L 87.474057 120.160557 
L 89.418096 120.436226 
L 91.362135 117.263761 
L 93.306174 108.614801 
L 95.250213 122.43353 
L 97.194253 109.179548 
L 99.138292 79.351737 
L 101.082331 106.292102 
L 103.02637 126.194267 
L 104.970409 124.934342 
L 106.914449 122.767085 
L 108.858488 126.30658 
L 110.802527 131.478837 
L 112.746566 111.146092 
L 114.690605 133.260256 
L 120.522723 133.260256 
L 122.466762 132.707402 
L 124.410801 129.169135 
L 126.354841 132.292761 
L 128.29888 119.179062 
L 130.242919 102.953053 
L 132.186958 116.652551 
L 134.130997 123.584145 
L 136.075037 125.989642 
L 138.019076 127.477402 
L 139.963115 122.297484 
L 141.907154 114.289859 
L 143.851193 115.401031 
L 145.795233 99.018995 
L 147.739272 105.409988 
L 149.683311 112.664016 
L 151.62735 129.637219 
L 153.571389 132.265118 
L 155.515429 132.817972 
L 157.459468 118.082538 
L 159.403507 123.812106 
L 161.347546 132.900901 
L 163.291585 130.495985 
L 165.235624 133.260256 
L 167.179664 121.466035 
L 169.123703 97.166782 
L 171.067742 89.411029 
L 173.011781 130.108405 
L 174.95582 123.52886 
L 176.89986 122.810731 
L 178.843899 121.892412 
L 180.787938 104.15496 
L 182.731977 121.694113 
L 186.620056 105.191951 
L 188.564095 115.060387 
L 190.508134 104.884099 
L 192.452173 105.912383 
L 194.396212 103.45791 
L 196.340252 116.758 
L 198.284291 112.803491 
L 200.22833 117.116916 
L 202.172369 127.868612 
L 204.116408 128.920504 
L 206.060448 130.523628 
L 208.004487 133.260256 
L 215.780644 133.260256 
L 217.724683 132.845615 
L 219.668722 128.699209 
L 221.612761 118.414807 
L 223.5568 126.547596 
L 225.50084 127.449177 
L 227.444879 125.044262 
L 229.388918 124.809299 
L 231.332957 124.107174 
L 233.276996 116.965318 
L 235.221035 118.458024 
L 237.165075 112.3223 
L 239.109114 113.872453 
L 241.053153 106.022805 
L 242.997192 101.176606 
L 244.941231 111.521954 
L 246.885271 130.78031 
L 248.82931 125.235973 
L 250.773349 131.021197 
L 252.717388 129.804336 
L 254.661427 131.048839 
L 256.605467 133.260256 
L 262.437584 133.260256 
L 264.381623 126.919917 
L 266.325663 110.647106 
L 268.269702 128.931928 
L 270.213741 124.009164 
L 272.15778 106.723259 
L 274.101819 107.276114 
L 276.045859 125.091093 
L 277.989898 96.204198 
L 279.933937 49.590517 
L 281.877976 23.296619 
L 283.822015 98.394023 
L 285.766055 117.525834 
L 287.710094 108.357309 
L 289.654133 117.782775 
L 291.598172 125.711284 
L 293.542211 127.852338 
L 295.486251 133.260256 
L 297.43029 133.260256 
L 299.374329 131.048839 
L 301.318368 133.260256 
L 309.094525 133.260256 
L 311.038564 131.491123 
L 312.982603 133.260256 
L 314.926642 104.712881 
L 316.870682 121.393415 
L 318.814721 123.748838 
L 320.75876 124.137581 
L 322.702799 120.747325 
L 324.646838 98.670018 
L 326.590878 127.820171 
L 328.534917 126.190042 
L 330.478956 126.899801 
L 332.422995 127.142004 
L 334.367034 111.625232 
L 336.311074 123.382596 
L 338.255113 130.108405 
L 340.199152 131.601693 
L 342.143191 133.260256 
L 344.08723 133.260256 
L 346.03127 126.626007 
L 347.975309 133.260256 
L 349.919348 132.154548 
L 351.863387 133.260256 
L 357.695505 133.260256 
L 359.639544 132.928543 
L 361.583583 133.260256 
L 363.527622 131.380552 
L 365.471662 123.311891 
L 367.415701 103.353283 
L 369.35974 84.61153 
L 371.303779 105.518221 
L 373.247818 117.572834 
L 375.191857 109.696481 
L 377.135897 41.784817 
L 379.079936 63.986144 
L 381.023975 106.003002 
L 382.968014 118.339403 
L 384.912053 95.22273 
L 386.856093 102.521568 
L 388.800132 132.48626 
L 390.744171 132.043977 
L 392.68821 132.154548 
L 392.68821 132.154548 
" style="fill:none;stroke:#1f77b4;stroke-linecap:square;stroke-width:1.5;"/>
   </g>
   <g id="patch_3">
    <path d="M 51.800938 138.758437 
L 51.800938 17.798437 
" style="fill:none;stroke:#000000;stroke-linecap:square;stroke-linejoin:miter;stroke-width:0.8;"/>
   </g>
   <g id="patch_4">
    <path d="M 408.920938 138.758437 
L 408.920938 17.798437 
" style="fill:none;stroke:#000000;stroke-linecap:square;stroke-linejoin:miter;stroke-width:0.8;"/>
   </g>
   <g id="patch_5">
    <path d="M 51.800938 138.758437 
L 408.920937 138.758437 
" style="fill:none;stroke:#000000;stroke-linecap:square;stroke-linejoin:miter;stroke-width:0.8;"/>
   </g>
   <g id="patch_6">
    <path d="M 51.800938 17.798437 
L 408.920937 17.798437 
" style="fill:none;stroke:#000000;stroke-linecap:square;stroke-linejoin:miter;stroke-width:0.8;"/>
   </g>
   <g id="legend_1">
    <g id="patch_7">
     <path d="M 311.802188 40.754687 
L 401.920938 40.754687 
Q 403.920938 40.754687 403.920938 38.754687 
L 403.920938 24.798437 
Q 403.920938 22.798437 401.920938 22.798437 
L 311.802188 22.798437 
Q 309.802188 22.798437 309.802188 24.798437 
L 309.802188 38.754687 
Q 309.802188 40.754687 311.802188 40.754687 
z
" style="fill:#ffffff;opacity:0.8;stroke:#cccccc;stroke-linejoin:miter;"/>
    </g>
    <g id="line2d_21">
     <path d="M 313.802188 30.896875 
L 333.802188 30.896875 
" style="fill:none;stroke:#1f77b4;stroke-linecap:square;stroke-width:1.5;"/>
    </g>
    <g id="line2d_22"/>
    <g id="text_8">
     <!-- MiD17_sum -->
     <defs>
      <path d="M 9.8125 72.90625 
L 24.515625 72.90625 
L 43.109375 23.296875 
L 61.8125 72.90625 
L 76.515625 72.90625 
L 76.515625 0 
L 66.890625 0 
L 66.890625 64.015625 
L 48.09375 14.015625 
L 38.1875 14.015625 
L 19.390625 64.015625 
L 19.390625 0 
L 9.8125 0 
z
" id="DejaVuSans-77"/>
      <path d="M 19.671875 64.796875 
L 19.671875 8.109375 
L 31.59375 8.109375 
Q 46.6875 8.109375 53.6875 14.9375 
Q 60.6875 21.78125 60.6875 36.53125 
Q 60.6875 51.171875 53.6875 57.984375 
Q 46.6875 64.796875 31.59375 64.796875 
z
M 9.8125 72.90625 
L 30.078125 72.90625 
Q 51.265625 72.90625 61.171875 64.09375 
Q 71.09375 55.28125 71.09375 36.53125 
Q 71.09375 17.671875 61.125 8.828125 
Q 51.171875 0 30.078125 0 
L 9.8125 0 
z
" id="DejaVuSans-68"/>
      <path d="M 8.203125 72.90625 
L 55.078125 72.90625 
L 55.078125 68.703125 
L 28.609375 0 
L 18.3125 0 
L 43.21875 64.59375 
L 8.203125 64.59375 
z
" id="DejaVuSans-55"/>
      <path d="M 50.984375 -16.609375 
L 50.984375 -23.578125 
L -0.984375 -23.578125 
L -0.984375 -16.609375 
z
" id="DejaVuSans-95"/>
     </defs>
     <g transform="translate(341.802188 34.396875)scale(0.1 -0.1)">
      <use xlink:href="#DejaVuSans-77"/>
      <use x="86.279297" xlink:href="#DejaVuSans-105"/>
      <use x="114.0625" xlink:href="#DejaVuSans-68"/>
      <use x="191.064453" xlink:href="#DejaVuSans-49"/>
      <use x="254.6875" xlink:href="#DejaVuSans-55"/>
      <use x="318.310547" xlink:href="#DejaVuSans-95"/>
      <use x="368.310547" xlink:href="#DejaVuSans-115"/>
      <use x="420.410156" xlink:href="#DejaVuSans-117"/>
      <use x="483.789062" xlink:href="#DejaVuSans-109"/>
     </g>
    </g>
   </g>
  </g>
  <g id="axes_2">
   <g id="patch_8">
    <path d="M 51.800938 283.910437 
L 408.920938 283.910437 
L 408.920938 162.950437 
L 51.800938 162.950437 
z
" style="fill:#ffffff;"/>
   </g>
   <g id="matplotlib.axis_3">
    <g id="xtick_15">
     <g id="line2d_23">
      <g>
       <use style="stroke:#000000;stroke-width:0.8;" x="68.033665" xlink:href="#mb3478392d3" y="283.910437"/>
      </g>
     </g>
     <g id="text_9">
      <!-- MON -->
      <defs>
       <path d="M 39.40625 66.21875 
Q 28.65625 66.21875 22.328125 58.203125 
Q 16.015625 50.203125 16.015625 36.375 
Q 16.015625 22.609375 22.328125 14.59375 
Q 28.65625 6.59375 39.40625 6.59375 
Q 50.140625 6.59375 56.421875 14.59375 
Q 62.703125 22.609375 62.703125 36.375 
Q 62.703125 50.203125 56.421875 58.203125 
Q 50.140625 66.21875 39.40625 66.21875 
z
M 39.40625 74.21875 
Q 54.734375 74.21875 63.90625 63.9375 
Q 73.09375 53.65625 73.09375 36.375 
Q 73.09375 19.140625 63.90625 8.859375 
Q 54.734375 -1.421875 39.40625 -1.421875 
Q 24.03125 -1.421875 14.8125 8.828125 
Q 5.609375 19.09375 5.609375 36.375 
Q 5.609375 53.65625 14.8125 63.9375 
Q 24.03125 74.21875 39.40625 74.21875 
z
" id="DejaVuSans-79"/>
       <path d="M 9.8125 72.90625 
L 23.09375 72.90625 
L 55.421875 11.921875 
L 55.421875 72.90625 
L 64.984375 72.90625 
L 64.984375 0 
L 51.703125 0 
L 19.390625 60.984375 
L 19.390625 0 
L 9.8125 0 
z
" id="DejaVuSans-78"/>
      </defs>
      <g transform="translate(56.04304 298.508875)scale(0.1 -0.1)">
       <use xlink:href="#DejaVuSans-77"/>
       <use x="86.279297" xlink:href="#DejaVuSans-79"/>
       <use x="164.990234" xlink:href="#DejaVuSans-78"/>
      </g>
      <!-- 0:00 -->
      <defs>
       <path d="M 11.71875 12.40625 
L 22.015625 12.40625 
L 22.015625 0 
L 11.71875 0 
z
M 11.71875 51.703125 
L 22.015625 51.703125 
L 22.015625 39.3125 
L 11.71875 39.3125 
z
" id="DejaVuSans-58"/>
      </defs>
      <g transform="translate(56.80554 309.706687)scale(0.1 -0.1)">
       <use xlink:href="#DejaVuSans-48"/>
       <use x="63.623047" xlink:href="#DejaVuSans-58"/>
       <use x="97.314453" xlink:href="#DejaVuSans-48"/>
       <use x="160.9375" xlink:href="#DejaVuSans-48"/>
      </g>
     </g>
    </g>
    <g id="xtick_16">
     <g id="line2d_24">
      <g>
       <use style="stroke:#000000;stroke-width:0.8;" x="91.362135" xlink:href="#mb3478392d3" y="283.910437"/>
      </g>
     </g>
     <g id="text_10">
      <!-- MON -->
      <g transform="translate(79.37151 298.508875)scale(0.1 -0.1)">
       <use xlink:href="#DejaVuSans-77"/>
       <use x="86.279297" xlink:href="#DejaVuSans-79"/>
       <use x="164.990234" xlink:href="#DejaVuSans-78"/>
      </g>
      <!-- 12:00 -->
      <g transform="translate(76.95276 309.706687)scale(0.1 -0.1)">
       <use xlink:href="#DejaVuSans-49"/>
       <use x="63.623047" xlink:href="#DejaVuSans-50"/>
       <use x="127.246094" xlink:href="#DejaVuSans-58"/>
       <use x="160.9375" xlink:href="#DejaVuSans-48"/>
       <use x="224.560547" xlink:href="#DejaVuSans-48"/>
      </g>
     </g>
    </g>
    <g id="xtick_17">
     <g id="line2d_25">
      <g>
       <use style="stroke:#000000;stroke-width:0.8;" x="114.690605" xlink:href="#mb3478392d3" y="283.910437"/>
      </g>
     </g>
     <g id="text_11">
      <!-- TUE -->
      <defs>
       <path d="M -0.296875 72.90625 
L 61.375 72.90625 
L 61.375 64.59375 
L 35.5 64.59375 
L 35.5 0 
L 25.59375 0 
L 25.59375 64.59375 
L -0.296875 64.59375 
z
" id="DejaVuSans-84"/>
       <path d="M 8.6875 72.90625 
L 18.609375 72.90625 
L 18.609375 28.609375 
Q 18.609375 16.890625 22.84375 11.734375 
Q 27.09375 6.59375 36.625 6.59375 
Q 46.09375 6.59375 50.34375 11.734375 
Q 54.59375 16.890625 54.59375 28.609375 
L 54.59375 72.90625 
L 64.5 72.90625 
L 64.5 27.390625 
Q 64.5 13.140625 57.4375 5.859375 
Q 50.390625 -1.421875 36.625 -1.421875 
Q 22.796875 -1.421875 15.734375 5.859375 
Q 8.6875 13.140625 8.6875 27.390625 
z
" id="DejaVuSans-85"/>
       <path d="M 9.8125 72.90625 
L 55.90625 72.90625 
L 55.90625 64.59375 
L 19.671875 64.59375 
L 19.671875 43.015625 
L 54.390625 43.015625 
L 54.390625 34.71875 
L 19.671875 34.71875 
L 19.671875 8.296875 
L 56.78125 8.296875 
L 56.78125 0 
L 9.8125 0 
z
" id="DejaVuSans-69"/>
      </defs>
      <g transform="translate(104.817949 298.508875)scale(0.1 -0.1)">
       <use xlink:href="#DejaVuSans-84"/>
       <use x="61.083984" xlink:href="#DejaVuSans-85"/>
       <use x="134.277344" xlink:href="#DejaVuSans-69"/>
      </g>
      <!-- 0:00 -->
      <g transform="translate(103.46248 309.706687)scale(0.1 -0.1)">
       <use xlink:href="#DejaVuSans-48"/>
       <use x="63.623047" xlink:href="#DejaVuSans-58"/>
       <use x="97.314453" xlink:href="#DejaVuSans-48"/>
       <use x="160.9375" xlink:href="#DejaVuSans-48"/>
      </g>
     </g>
    </g>
    <g id="xtick_18">
     <g id="line2d_26">
      <g>
       <use style="stroke:#000000;stroke-width:0.8;" x="138.019076" xlink:href="#mb3478392d3" y="283.910437"/>
      </g>
     </g>
     <g id="text_12">
      <!-- TUE -->
      <g transform="translate(128.14642 298.508875)scale(0.1 -0.1)">
       <use xlink:href="#DejaVuSans-84"/>
       <use x="61.083984" xlink:href="#DejaVuSans-85"/>
       <use x="134.277344" xlink:href="#DejaVuSans-69"/>
      </g>
      <!-- 12:00 -->
      <g transform="translate(123.609701 309.706687)scale(0.1 -0.1)">
       <use xlink:href="#DejaVuSans-49"/>
       <use x="63.623047" xlink:href="#DejaVuSans-50"/>
       <use x="127.246094" xlink:href="#DejaVuSans-58"/>
       <use x="160.9375" xlink:href="#DejaVuSans-48"/>
       <use x="224.560547" xlink:href="#DejaVuSans-48"/>
      </g>
     </g>
    </g>
    <g id="xtick_19">
     <g id="line2d_27">
      <g>
       <use style="stroke:#000000;stroke-width:0.8;" x="161.347546" xlink:href="#mb3478392d3" y="283.910437"/>
      </g>
     </g>
     <g id="text_13">
      <!-- WED -->
      <defs>
       <path d="M 3.328125 72.90625 
L 13.28125 72.90625 
L 28.609375 11.28125 
L 43.890625 72.90625 
L 54.984375 72.90625 
L 70.3125 11.28125 
L 85.59375 72.90625 
L 95.609375 72.90625 
L 77.296875 0 
L 64.890625 0 
L 49.515625 63.28125 
L 33.984375 0 
L 21.578125 0 
z
" id="DejaVuSans-87"/>
      </defs>
      <g transform="translate(149.394421 298.508875)scale(0.1 -0.1)">
       <use xlink:href="#DejaVuSans-87"/>
       <use x="98.876953" xlink:href="#DejaVuSans-69"/>
       <use x="162.060547" xlink:href="#DejaVuSans-68"/>
      </g>
      <!-- 0:00 -->
      <g transform="translate(150.119421 309.706687)scale(0.1 -0.1)">
       <use xlink:href="#DejaVuSans-48"/>
       <use x="63.623047" xlink:href="#DejaVuSans-58"/>
       <use x="97.314453" xlink:href="#DejaVuSans-48"/>
       <use x="160.9375" xlink:href="#DejaVuSans-48"/>
      </g>
     </g>
    </g>
    <g id="xtick_20">
     <g id="line2d_28">
      <g>
       <use style="stroke:#000000;stroke-width:0.8;" x="184.676016" xlink:href="#mb3478392d3" y="283.910437"/>
      </g>
     </g>
     <g id="text_14">
      <!-- WED -->
      <g transform="translate(172.722891 298.508875)scale(0.1 -0.1)">
       <use xlink:href="#DejaVuSans-87"/>
       <use x="98.876953" xlink:href="#DejaVuSans-69"/>
       <use x="162.060547" xlink:href="#DejaVuSans-68"/>
      </g>
      <!-- 12:00 -->
      <g transform="translate(170.266641 309.706687)scale(0.1 -0.1)">
       <use xlink:href="#DejaVuSans-49"/>
       <use x="63.623047" xlink:href="#DejaVuSans-50"/>
       <use x="127.246094" xlink:href="#DejaVuSans-58"/>
       <use x="160.9375" xlink:href="#DejaVuSans-48"/>
       <use x="224.560547" xlink:href="#DejaVuSans-48"/>
      </g>
     </g>
    </g>
    <g id="xtick_21">
     <g id="line2d_29">
      <g>
       <use style="stroke:#000000;stroke-width:0.8;" x="208.004487" xlink:href="#mb3478392d3" y="283.910437"/>
      </g>
     </g>
     <g id="text_15">
      <!-- THU -->
      <defs>
       <path d="M 9.8125 72.90625 
L 19.671875 72.90625 
L 19.671875 43.015625 
L 55.515625 43.015625 
L 55.515625 72.90625 
L 65.375 72.90625 
L 65.375 0 
L 55.515625 0 
L 55.515625 34.71875 
L 19.671875 34.71875 
L 19.671875 0 
L 9.8125 0 
z
" id="DejaVuSans-72"/>
      </defs>
      <g transform="translate(197.531049 298.508875)scale(0.1 -0.1)">
       <use xlink:href="#DejaVuSans-84"/>
       <use x="61.083984" xlink:href="#DejaVuSans-72"/>
       <use x="136.279297" xlink:href="#DejaVuSans-85"/>
      </g>
      <!-- 0:00 -->
      <g transform="translate(196.776362 309.706687)scale(0.1 -0.1)">
       <use xlink:href="#DejaVuSans-48"/>
       <use x="63.623047" xlink:href="#DejaVuSans-58"/>
       <use x="97.314453" xlink:href="#DejaVuSans-48"/>
       <use x="160.9375" xlink:href="#DejaVuSans-48"/>
      </g>
     </g>
    </g>
    <g id="xtick_22">
     <g id="line2d_30">
      <g>
       <use style="stroke:#000000;stroke-width:0.8;" x="231.332957" xlink:href="#mb3478392d3" y="283.910437"/>
      </g>
     </g>
     <g id="text_16">
      <!-- THU -->
      <g transform="translate(220.85952 298.508875)scale(0.1 -0.1)">
       <use xlink:href="#DejaVuSans-84"/>
       <use x="61.083984" xlink:href="#DejaVuSans-72"/>
       <use x="136.279297" xlink:href="#DejaVuSans-85"/>
      </g>
      <!-- 12:00 -->
      <g transform="translate(216.923582 309.706687)scale(0.1 -0.1)">
       <use xlink:href="#DejaVuSans-49"/>
       <use x="63.623047" xlink:href="#DejaVuSans-50"/>
       <use x="127.246094" xlink:href="#DejaVuSans-58"/>
       <use x="160.9375" xlink:href="#DejaVuSans-48"/>
       <use x="224.560547" xlink:href="#DejaVuSans-48"/>
      </g>
     </g>
    </g>
    <g id="xtick_23">
     <g id="line2d_31">
      <g>
       <use style="stroke:#000000;stroke-width:0.8;" x="254.661427" xlink:href="#mb3478392d3" y="283.910437"/>
      </g>
     </g>
     <g id="text_17">
      <!-- FRI -->
      <defs>
       <path d="M 9.8125 72.90625 
L 51.703125 72.90625 
L 51.703125 64.59375 
L 19.671875 64.59375 
L 19.671875 43.109375 
L 48.578125 43.109375 
L 48.578125 34.8125 
L 19.671875 34.8125 
L 19.671875 0 
L 9.8125 0 
z
" id="DejaVuSans-70"/>
       <path d="M 44.390625 34.1875 
Q 47.5625 33.109375 50.5625 29.59375 
Q 53.5625 26.078125 56.59375 19.921875 
L 66.609375 0 
L 56 0 
L 46.6875 18.703125 
Q 43.0625 26.03125 39.671875 28.421875 
Q 36.28125 30.8125 30.421875 30.8125 
L 19.671875 30.8125 
L 19.671875 0 
L 9.8125 0 
L 9.8125 72.90625 
L 32.078125 72.90625 
Q 44.578125 72.90625 50.734375 67.671875 
Q 56.890625 62.453125 56.890625 51.90625 
Q 56.890625 45.015625 53.6875 40.46875 
Q 50.484375 35.9375 44.390625 34.1875 
z
M 19.671875 64.796875 
L 19.671875 38.921875 
L 32.078125 38.921875 
Q 39.203125 38.921875 42.84375 42.21875 
Q 46.484375 45.515625 46.484375 51.90625 
Q 46.484375 58.296875 42.84375 61.546875 
Q 39.203125 64.796875 32.078125 64.796875 
z
" id="DejaVuSans-82"/>
       <path d="M 9.8125 72.90625 
L 19.671875 72.90625 
L 19.671875 0 
L 9.8125 0 
z
" id="DejaVuSans-73"/>
      </defs>
      <g transform="translate(246.836427 298.508875)scale(0.1 -0.1)">
       <use xlink:href="#DejaVuSans-70"/>
       <use x="57.519531" xlink:href="#DejaVuSans-82"/>
       <use x="127.001953" xlink:href="#DejaVuSans-73"/>
      </g>
      <!-- 0:00 -->
      <g transform="translate(243.433302 309.706687)scale(0.1 -0.1)">
       <use xlink:href="#DejaVuSans-48"/>
       <use x="63.623047" xlink:href="#DejaVuSans-58"/>
       <use x="97.314453" xlink:href="#DejaVuSans-48"/>
       <use x="160.9375" xlink:href="#DejaVuSans-48"/>
      </g>
     </g>
    </g>
    <g id="xtick_24">
     <g id="line2d_32">
      <g>
       <use style="stroke:#000000;stroke-width:0.8;" x="277.989898" xlink:href="#mb3478392d3" y="283.910437"/>
      </g>
     </g>
     <g id="text_18">
      <!-- FRI -->
      <g transform="translate(270.164898 298.508875)scale(0.1 -0.1)">
       <use xlink:href="#DejaVuSans-70"/>
       <use x="57.519531" xlink:href="#DejaVuSans-82"/>
       <use x="127.001953" xlink:href="#DejaVuSans-73"/>
      </g>
      <!-- 12:00 -->
      <g transform="translate(263.580523 309.706687)scale(0.1 -0.1)">
       <use xlink:href="#DejaVuSans-49"/>
       <use x="63.623047" xlink:href="#DejaVuSans-50"/>
       <use x="127.246094" xlink:href="#DejaVuSans-58"/>
       <use x="160.9375" xlink:href="#DejaVuSans-48"/>
       <use x="224.560547" xlink:href="#DejaVuSans-48"/>
      </g>
     </g>
    </g>
    <g id="xtick_25">
     <g id="line2d_33">
      <g>
       <use style="stroke:#000000;stroke-width:0.8;" x="301.318368" xlink:href="#mb3478392d3" y="283.910437"/>
      </g>
     </g>
     <g id="text_19">
      <!-- SAT -->
      <defs>
       <path d="M 34.1875 63.1875 
L 20.796875 26.90625 
L 47.609375 26.90625 
z
M 28.609375 72.90625 
L 39.796875 72.90625 
L 67.578125 0 
L 57.328125 0 
L 50.6875 18.703125 
L 17.828125 18.703125 
L 11.1875 0 
L 0.78125 0 
z
" id="DejaVuSans-65"/>
      </defs>
      <g transform="translate(291.674618 298.508875)scale(0.1 -0.1)">
       <use xlink:href="#DejaVuSans-83"/>
       <use x="63.492188" xlink:href="#DejaVuSans-65"/>
       <use x="131.791016" xlink:href="#DejaVuSans-84"/>
      </g>
      <!-- 0:00 -->
      <g transform="translate(290.090243 309.706687)scale(0.1 -0.1)">
       <use xlink:href="#DejaVuSans-48"/>
       <use x="63.623047" xlink:href="#DejaVuSans-58"/>
       <use x="97.314453" xlink:href="#DejaVuSans-48"/>
       <use x="160.9375" xlink:href="#DejaVuSans-48"/>
      </g>
     </g>
    </g>
    <g id="xtick_26">
     <g id="line2d_34">
      <g>
       <use style="stroke:#000000;stroke-width:0.8;" x="324.646838" xlink:href="#mb3478392d3" y="283.910437"/>
      </g>
     </g>
     <g id="text_20">
      <!-- SAT -->
      <g transform="translate(315.003088 298.508875)scale(0.1 -0.1)">
       <use xlink:href="#DejaVuSans-83"/>
       <use x="63.492188" xlink:href="#DejaVuSans-65"/>
       <use x="131.791016" xlink:href="#DejaVuSans-84"/>
      </g>
      <!-- 12:00 -->
      <g transform="translate(310.237463 309.706687)scale(0.1 -0.1)">
       <use xlink:href="#DejaVuSans-49"/>
       <use x="63.623047" xlink:href="#DejaVuSans-50"/>
       <use x="127.246094" xlink:href="#DejaVuSans-58"/>
       <use x="160.9375" xlink:href="#DejaVuSans-48"/>
       <use x="224.560547" xlink:href="#DejaVuSans-48"/>
      </g>
     </g>
    </g>
    <g id="xtick_27">
     <g id="line2d_35">
      <g>
       <use style="stroke:#000000;stroke-width:0.8;" x="347.975309" xlink:href="#mb3478392d3" y="283.910437"/>
      </g>
     </g>
     <g id="text_21">
      <!-- SUN -->
      <g transform="translate(337.40109 298.508875)scale(0.1 -0.1)">
       <use xlink:href="#DejaVuSans-83"/>
       <use x="63.476562" xlink:href="#DejaVuSans-85"/>
       <use x="136.669922" xlink:href="#DejaVuSans-78"/>
      </g>
      <!-- 0:00 -->
      <g transform="translate(336.747184 309.706687)scale(0.1 -0.1)">
       <use xlink:href="#DejaVuSans-48"/>
       <use x="63.623047" xlink:href="#DejaVuSans-58"/>
       <use x="97.314453" xlink:href="#DejaVuSans-48"/>
       <use x="160.9375" xlink:href="#DejaVuSans-48"/>
      </g>
     </g>
    </g>
    <g id="xtick_28">
     <g id="line2d_36">
      <g>
       <use style="stroke:#000000;stroke-width:0.8;" x="371.303779" xlink:href="#mb3478392d3" y="283.910437"/>
      </g>
     </g>
     <g id="text_22">
      <!-- SUN -->
      <g transform="translate(360.72956 298.508875)scale(0.1 -0.1)">
       <use xlink:href="#DejaVuSans-83"/>
       <use x="63.476562" xlink:href="#DejaVuSans-85"/>
       <use x="136.669922" xlink:href="#DejaVuSans-78"/>
      </g>
      <!-- 12:00 -->
      <g transform="translate(356.894404 309.706687)scale(0.1 -0.1)">
       <use xlink:href="#DejaVuSans-49"/>
       <use x="63.623047" xlink:href="#DejaVuSans-50"/>
       <use x="127.246094" xlink:href="#DejaVuSans-58"/>
       <use x="160.9375" xlink:href="#DejaVuSans-48"/>
       <use x="224.560547" xlink:href="#DejaVuSans-48"/>
      </g>
     </g>
    </g>
    <g id="text_23">
     <!-- Hour -->
     <g transform="translate(218.317188 323.384812)scale(0.1 -0.1)">
      <use xlink:href="#DejaVuSans-72"/>
      <use x="75.195312" xlink:href="#DejaVuSans-111"/>
      <use x="136.376953" xlink:href="#DejaVuSans-117"/>
      <use x="199.755859" xlink:href="#DejaVuSans-114"/>
     </g>
    </g>
   </g>
   <g id="matplotlib.axis_4">
    <g id="ytick_6">
     <g id="line2d_37">
      <g>
       <use style="stroke:#000000;stroke-width:0.8;" x="51.800938" xlink:href="#m5e89962aee" y="278.412256"/>
      </g>
     </g>
     <g id="text_24">
      <!-- 0 -->
      <g transform="translate(38.438438 282.211474)scale(0.1 -0.1)">
       <use xlink:href="#DejaVuSans-48"/>
      </g>
     </g>
    </g>
    <g id="ytick_7">
     <g id="line2d_38">
      <g>
       <use style="stroke:#000000;stroke-width:0.8;" x="51.800938" xlink:href="#m5e89962aee" y="258.203957"/>
      </g>
     </g>
     <g id="text_25">
      <!-- 10 -->
      <g transform="translate(32.075938 262.003176)scale(0.1 -0.1)">
       <use xlink:href="#DejaVuSans-49"/>
       <use x="63.623047" xlink:href="#DejaVuSans-48"/>
      </g>
     </g>
    </g>
    <g id="ytick_8">
     <g id="line2d_39">
      <g>
       <use style="stroke:#000000;stroke-width:0.8;" x="51.800938" xlink:href="#m5e89962aee" y="237.995659"/>
      </g>
     </g>
     <g id="text_26">
      <!-- 20 -->
      <g transform="translate(32.075938 241.794878)scale(0.1 -0.1)">
       <use xlink:href="#DejaVuSans-50"/>
       <use x="63.623047" xlink:href="#DejaVuSans-48"/>
      </g>
     </g>
    </g>
    <g id="ytick_9">
     <g id="line2d_40">
      <g>
       <use style="stroke:#000000;stroke-width:0.8;" x="51.800938" xlink:href="#m5e89962aee" y="217.787361"/>
      </g>
     </g>
     <g id="text_27">
      <!-- 30 -->
      <defs>
       <path d="M 40.578125 39.3125 
Q 47.65625 37.796875 51.625 33 
Q 55.609375 28.21875 55.609375 21.1875 
Q 55.609375 10.40625 48.1875 4.484375 
Q 40.765625 -1.421875 27.09375 -1.421875 
Q 22.515625 -1.421875 17.65625 -0.515625 
Q 12.796875 0.390625 7.625 2.203125 
L 7.625 11.71875 
Q 11.71875 9.328125 16.59375 8.109375 
Q 21.484375 6.890625 26.8125 6.890625 
Q 36.078125 6.890625 40.9375 10.546875 
Q 45.796875 14.203125 45.796875 21.1875 
Q 45.796875 27.640625 41.28125 31.265625 
Q 36.765625 34.90625 28.71875 34.90625 
L 20.21875 34.90625 
L 20.21875 43.015625 
L 29.109375 43.015625 
Q 36.375 43.015625 40.234375 45.921875 
Q 44.09375 48.828125 44.09375 54.296875 
Q 44.09375 59.90625 40.109375 62.90625 
Q 36.140625 65.921875 28.71875 65.921875 
Q 24.65625 65.921875 20.015625 65.03125 
Q 15.375 64.15625 9.8125 62.3125 
L 9.8125 71.09375 
Q 15.4375 72.65625 20.34375 73.4375 
Q 25.25 74.21875 29.59375 74.21875 
Q 40.828125 74.21875 47.359375 69.109375 
Q 53.90625 64.015625 53.90625 55.328125 
Q 53.90625 49.265625 50.4375 45.09375 
Q 46.96875 40.921875 40.578125 39.3125 
z
" id="DejaVuSans-51"/>
      </defs>
      <g transform="translate(32.075938 221.58658)scale(0.1 -0.1)">
       <use xlink:href="#DejaVuSans-51"/>
       <use x="63.623047" xlink:href="#DejaVuSans-48"/>
      </g>
     </g>
    </g>
    <g id="ytick_10">
     <g id="line2d_41">
      <g>
       <use style="stroke:#000000;stroke-width:0.8;" x="51.800938" xlink:href="#m5e89962aee" y="197.579063"/>
      </g>
     </g>
     <g id="text_28">
      <!-- 40 -->
      <g transform="translate(32.075938 201.378282)scale(0.1 -0.1)">
       <use xlink:href="#DejaVuSans-52"/>
       <use x="63.623047" xlink:href="#DejaVuSans-48"/>
      </g>
     </g>
    </g>
    <g id="ytick_11">
     <g id="line2d_42">
      <g>
       <use style="stroke:#000000;stroke-width:0.8;" x="51.800938" xlink:href="#m5e89962aee" y="177.370765"/>
      </g>
     </g>
     <g id="text_29">
      <!-- 50 -->
      <defs>
       <path d="M 10.796875 72.90625 
L 49.515625 72.90625 
L 49.515625 64.59375 
L 19.828125 64.59375 
L 19.828125 46.734375 
Q 21.96875 47.46875 24.109375 47.828125 
Q 26.265625 48.1875 28.421875 48.1875 
Q 40.625 48.1875 47.75 41.5 
Q 54.890625 34.8125 54.890625 23.390625 
Q 54.890625 11.625 47.5625 5.09375 
Q 40.234375 -1.421875 26.90625 -1.421875 
Q 22.3125 -1.421875 17.546875 -0.640625 
Q 12.796875 0.140625 7.71875 1.703125 
L 7.71875 11.625 
Q 12.109375 9.234375 16.796875 8.0625 
Q 21.484375 6.890625 26.703125 6.890625 
Q 35.15625 6.890625 40.078125 11.328125 
Q 45.015625 15.765625 45.015625 23.390625 
Q 45.015625 31 40.078125 35.4375 
Q 35.15625 39.890625 26.703125 39.890625 
Q 22.75 39.890625 18.8125 39.015625 
Q 14.890625 38.140625 10.796875 36.28125 
z
" id="DejaVuSans-53"/>
      </defs>
      <g transform="translate(32.075938 181.169983)scale(0.1 -0.1)">
       <use xlink:href="#DejaVuSans-53"/>
       <use x="63.623047" xlink:href="#DejaVuSans-48"/>
      </g>
     </g>
    </g>
    <g id="text_30">
     <!-- Average of hourly  -->
     <defs>
      <path d="M 2.984375 54.6875 
L 12.5 54.6875 
L 29.59375 8.796875 
L 46.6875 54.6875 
L 56.203125 54.6875 
L 35.6875 0 
L 23.484375 0 
z
" id="DejaVuSans-118"/>
      <path d="M 45.40625 27.984375 
Q 45.40625 37.75 41.375 43.109375 
Q 37.359375 48.484375 30.078125 48.484375 
Q 22.859375 48.484375 18.828125 43.109375 
Q 14.796875 37.75 14.796875 27.984375 
Q 14.796875 18.265625 18.828125 12.890625 
Q 22.859375 7.515625 30.078125 7.515625 
Q 37.359375 7.515625 41.375 12.890625 
Q 45.40625 18.265625 45.40625 27.984375 
z
M 54.390625 6.78125 
Q 54.390625 -7.171875 48.1875 -13.984375 
Q 42 -20.796875 29.203125 -20.796875 
Q 24.46875 -20.796875 20.265625 -20.09375 
Q 16.0625 -19.390625 12.109375 -17.921875 
L 12.109375 -9.1875 
Q 16.0625 -11.328125 19.921875 -12.34375 
Q 23.78125 -13.375 27.78125 -13.375 
Q 36.625 -13.375 41.015625 -8.765625 
Q 45.40625 -4.15625 45.40625 5.171875 
L 45.40625 9.625 
Q 42.625 4.78125 38.28125 2.390625 
Q 33.9375 0 27.875 0 
Q 17.828125 0 11.671875 7.65625 
Q 5.515625 15.328125 5.515625 27.984375 
Q 5.515625 40.671875 11.671875 48.328125 
Q 17.828125 56 27.875 56 
Q 33.9375 56 38.28125 53.609375 
Q 42.625 51.21875 45.40625 46.390625 
L 45.40625 54.6875 
L 54.390625 54.6875 
z
" id="DejaVuSans-103"/>
      <path d="M 54.890625 33.015625 
L 54.890625 0 
L 45.90625 0 
L 45.90625 32.71875 
Q 45.90625 40.484375 42.875 44.328125 
Q 39.84375 48.1875 33.796875 48.1875 
Q 26.515625 48.1875 22.3125 43.546875 
Q 18.109375 38.921875 18.109375 30.90625 
L 18.109375 0 
L 9.078125 0 
L 9.078125 75.984375 
L 18.109375 75.984375 
L 18.109375 46.1875 
Q 21.34375 51.125 25.703125 53.5625 
Q 30.078125 56 35.796875 56 
Q 45.21875 56 50.046875 50.171875 
Q 54.890625 44.34375 54.890625 33.015625 
z
" id="DejaVuSans-104"/>
      <path d="M 32.171875 -5.078125 
Q 28.375 -14.84375 24.75 -17.8125 
Q 21.140625 -20.796875 15.09375 -20.796875 
L 7.90625 -20.796875 
L 7.90625 -13.28125 
L 13.1875 -13.28125 
Q 16.890625 -13.28125 18.9375 -11.515625 
Q 21 -9.765625 23.484375 -3.21875 
L 25.09375 0.875 
L 2.984375 54.6875 
L 12.5 54.6875 
L 29.59375 11.921875 
L 46.6875 54.6875 
L 56.203125 54.6875 
z
" id="DejaVuSans-121"/>
     </defs>
     <g transform="translate(14.798438 269.640594)rotate(-90)scale(0.1 -0.1)">
      <use xlink:href="#DejaVuSans-65"/>
      <use x="68.330078" xlink:href="#DejaVuSans-118"/>
      <use x="127.509766" xlink:href="#DejaVuSans-101"/>
      <use x="189.033203" xlink:href="#DejaVuSans-114"/>
      <use x="230.146484" xlink:href="#DejaVuSans-97"/>
      <use x="291.425781" xlink:href="#DejaVuSans-103"/>
      <use x="354.902344" xlink:href="#DejaVuSans-101"/>
      <use x="416.425781" xlink:href="#DejaVuSans-32"/>
      <use x="448.212891" xlink:href="#DejaVuSans-111"/>
      <use x="509.394531" xlink:href="#DejaVuSans-102"/>
      <use x="544.599609" xlink:href="#DejaVuSans-32"/>
      <use x="576.386719" xlink:href="#DejaVuSans-104"/>
      <use x="639.765625" xlink:href="#DejaVuSans-111"/>
      <use x="700.947266" xlink:href="#DejaVuSans-117"/>
      <use x="764.326172" xlink:href="#DejaVuSans-114"/>
      <use x="805.439453" xlink:href="#DejaVuSans-108"/>
      <use x="833.222656" xlink:href="#DejaVuSans-121"/>
      <use x="892.402344" xlink:href="#DejaVuSans-32"/>
     </g>
     <!--  trips in km -->
     <g transform="translate(25.99625 251.704656)rotate(-90)scale(0.1 -0.1)">
      <use xlink:href="#DejaVuSans-32"/>
      <use x="31.787109" xlink:href="#DejaVuSans-116"/>
      <use x="70.996094" xlink:href="#DejaVuSans-114"/>
      <use x="112.109375" xlink:href="#DejaVuSans-105"/>
      <use x="139.892578" xlink:href="#DejaVuSans-112"/>
      <use x="203.369141" xlink:href="#DejaVuSans-115"/>
      <use x="255.46875" xlink:href="#DejaVuSans-32"/>
      <use x="287.255859" xlink:href="#DejaVuSans-105"/>
      <use x="315.039062" xlink:href="#DejaVuSans-110"/>
      <use x="378.417969" xlink:href="#DejaVuSans-32"/>
      <use x="410.205078" xlink:href="#DejaVuSans-107"/>
      <use x="468.115234" xlink:href="#DejaVuSans-109"/>
     </g>
    </g>
   </g>
   <g id="line2d_43">
    <path clip-path="url(#pa4b0c7b9cd)" d="M 68.033665 278.412256 
L 69.977704 274.412697 
L 71.921743 278.412256 
L 73.865782 278.412256 
L 75.809822 277.319043 
L 77.753861 269.166608 
L 79.6979 267.115095 
L 81.641939 269.152131 
L 83.585978 263.616285 
L 85.530018 263.704276 
L 87.474057 273.673843 
L 89.418096 273.773558 
L 91.362135 272.626016 
L 93.306174 269.497521 
L 95.250213 274.496021 
L 97.194253 269.701801 
L 99.138292 258.912508 
L 101.082331 268.657356 
L 103.02637 275.856352 
L 104.970409 275.400613 
L 106.914449 274.616674 
L 108.858488 275.896977 
L 110.802527 277.767882 
L 112.746566 270.413138 
L 114.690605 278.412256 
L 120.522723 278.412256 
L 122.466762 278.198946 
L 124.410801 276.833763 
L 126.354841 278.038964 
L 128.29888 272.979255 
L 130.242919 266.718711 
L 132.186958 272.004441 
L 134.130997 274.678885 
L 136.075037 275.607007 
L 138.019076 276.181035 
L 139.963115 274.182448 
L 141.907154 271.092835 
L 143.851193 271.521562 
L 145.795233 265.200819 
L 147.739272 267.66668 
L 149.683311 270.46553 
L 151.62735 277.014365 
L 153.571389 278.028298 
L 155.515429 278.241608 
L 157.459468 272.556179 
L 159.403507 274.76684 
L 161.347546 278.294533 
L 163.291585 277.506695 
L 165.235624 278.412256 
L 167.179664 274.548531 
L 169.123703 266.588222 
L 171.067742 264.047478 
L 173.011781 277.379726 
L 174.95582 275.224301 
L 178.843899 274.688209 
L 180.787938 268.877513 
L 182.731977 274.623248 
L 186.620056 269.217226 
L 188.564095 272.450074 
L 190.508134 269.116375 
L 192.452173 269.453236 
L 194.396212 268.649163 
L 196.340252 273.006203 
L 198.284291 271.710726 
L 200.22833 273.123782 
L 202.172369 276.645981 
L 204.116408 276.990576 
L 206.060448 277.515751 
L 208.004487 278.412256 
L 215.780644 278.412256 
L 217.724683 278.268272 
L 219.668722 276.82843 
L 221.612761 273.257167 
L 223.5568 276.081281 
L 225.50084 276.394356 
L 227.444879 275.559248 
L 229.388918 275.477657 
L 231.332957 275.233844 
L 233.276996 272.753831 
L 235.221035 273.272174 
L 237.165075 271.141541 
L 239.109114 271.679832 
L 241.053153 268.954039 
L 242.997192 267.271194 
L 244.941231 270.86362 
L 246.885271 277.551093 
L 248.82931 275.62582 
L 250.773349 277.634741 
L 252.717388 277.212186 
L 254.661427 277.452362 
L 256.605467 278.412256 
L 262.437584 278.412256 
L 264.381623 275.660149 
L 266.325663 268.596723 
L 268.269702 276.533488 
L 270.213741 274.396698 
L 272.15778 266.893526 
L 274.101819 267.133499 
L 276.045859 274.866324 
L 277.989898 262.327589 
L 279.933937 242.094312 
L 281.877976 230.681102 
L 283.822015 263.278112 
L 285.766055 271.582525 
L 287.710094 267.602806 
L 289.654133 271.694053 
L 291.598172 275.135526 
L 293.542211 276.064878 
L 295.486251 278.412256 
L 297.43029 278.412256 
L 299.374329 277.452362 
L 301.318368 278.412256 
L 309.094525 278.412256 
L 311.038564 277.62465 
L 312.982603 278.412256 
L 314.926642 265.703167 
L 316.870682 273.129222 
L 318.814721 274.17784 
L 320.75876 274.350906 
L 322.702799 272.841588 
L 324.646838 263.012928 
L 326.590878 275.990369 
L 328.534917 275.264647 
L 330.478956 275.580626 
L 332.422995 275.688453 
L 334.367034 268.780497 
L 336.311074 274.014792 
L 338.255113 277.009074 
L 342.143191 278.412256 
L 344.08723 278.412256 
L 346.03127 275.458735 
L 347.975309 278.412256 
L 349.919348 277.965793 
L 351.863387 278.412256 
L 357.695505 278.412256 
L 359.639544 278.278317 
L 361.583583 278.412256 
L 363.527622 277.65327 
L 365.471662 274.395309 
L 367.415701 266.33643 
L 369.35974 258.768893 
L 371.303779 267.210588 
L 373.247818 272.077995 
L 375.191857 268.897684 
L 377.135897 241.47634 
L 379.079936 250.440783 
L 381.023975 267.406333 
L 382.968014 272.38752 
L 384.912053 263.053479 
L 386.856093 266.000601 
L 388.800132 278.099732 
L 390.744171 277.921147 
L 392.68821 277.965793 
L 392.68821 277.965793 
" style="fill:none;stroke:#1f77b4;stroke-linecap:square;stroke-width:1.5;"/>
   </g>
   <g id="line2d_44">
    <path clip-path="url(#pa4b0c7b9cd)" d="M 68.033665 278.412256 
L 69.977704 274.606845 
L 71.921743 278.412256 
L 73.865782 278.412256 
L 75.809822 277.4424 
L 77.753861 269.392285 
L 79.6979 267.709718 
L 81.641939 270.993883 
L 83.585978 272.584439 
L 85.530018 272.575732 
L 87.474057 276.098481 
L 89.418096 274.550176 
L 93.306174 272.51457 
L 95.250213 274.516317 
L 97.194253 272.521222 
L 99.138292 258.528312 
L 101.082331 270.969944 
L 103.02637 275.260544 
L 104.970409 277.065044 
L 106.914449 277.22998 
L 108.858488 276.409481 
L 110.802527 277.815672 
L 112.746566 270.801435 
L 114.690605 278.412256 
L 120.522723 278.412256 
L 122.466762 278.087762 
L 124.410801 277.203846 
L 126.354841 278.215696 
L 128.29888 274.76339 
L 130.242919 265.797036 
L 132.186958 273.587679 
L 134.130997 276.993191 
L 136.075037 276.461344 
L 138.019076 277.355446 
L 139.963115 273.973677 
L 141.907154 270.16975 
L 143.851193 272.29652 
L 145.795233 255.845394 
L 147.739272 265.994522 
L 149.683311 274.26815 
L 151.62735 278.093604 
L 155.515429 278.396702 
L 157.459468 271.31606 
L 159.403507 272.6827 
L 161.347546 278.328391 
L 163.291585 278.048304 
L 165.235624 278.412256 
L 167.179664 273.151491 
L 169.123703 261.985567 
L 171.067742 255.354813 
L 173.011781 276.479124 
L 174.95582 276.191838 
L 176.89986 277.010427 
L 178.843899 277.04945 
L 180.787938 271.573156 
L 182.731977 277.150644 
L 184.676016 271.493005 
L 186.620056 274.282119 
L 188.564095 270.961733 
L 190.508134 273.579489 
L 192.452173 264.100342 
L 194.396212 272.468847 
L 196.340252 273.93465 
L 198.284291 269.95723 
L 200.22833 269.668779 
L 202.172369 274.751993 
L 204.116408 276.192413 
L 206.060448 277.898169 
L 208.004487 278.412256 
L 217.724683 278.354432 
L 219.668722 277.820723 
L 221.612761 270.399924 
L 223.5568 276.541493 
L 225.50084 275.159686 
L 227.444879 276.853927 
L 229.388918 276.307844 
L 231.332957 270.270791 
L 233.276996 266.415435 
L 235.221035 272.499211 
L 237.165075 258.468349 
L 239.109114 267.005602 
L 241.053153 258.432708 
L 242.997192 274.794406 
L 244.941231 270.663704 
L 246.885271 278.006146 
L 248.82931 271.891017 
L 250.773349 278.25814 
L 254.661427 277.239097 
L 256.605467 278.412256 
L 262.437584 278.412256 
L 264.381623 277.048066 
L 266.325663 267.891709 
L 268.269702 276.629628 
L 270.213741 273.993818 
L 272.15778 265.701108 
L 274.101819 265.594886 
L 276.045859 274.88418 
L 277.989898 241.187117 
L 279.933937 179.080728 
L 281.877976 168.448619 
L 283.822015 256.286997 
L 285.766055 270.533476 
L 287.710094 266.094882 
L 289.654133 271.314229 
L 291.598172 274.667042 
L 293.542211 277.189212 
L 295.486251 278.412256 
L 297.43029 278.412256 
L 299.374329 277.239097 
L 301.318368 278.412256 
L 309.094525 278.412256 
L 311.038564 277.668605 
L 312.982603 278.412256 
L 314.926642 275.23782 
L 316.870682 277.335591 
L 318.814721 276.395737 
L 320.75876 276.979734 
L 322.702799 271.450547 
L 324.646838 260.902091 
L 326.590878 272.248534 
L 328.534917 274.001664 
L 330.478956 275.463347 
L 332.422995 276.722769 
L 334.367034 269.301402 
L 336.311074 271.705481 
L 338.255113 278.214495 
L 340.199152 278.074703 
L 342.143191 278.412256 
L 344.08723 278.412256 
L 346.03127 278.066965 
L 347.975309 278.412256 
L 359.639544 278.273063 
L 361.583583 278.412256 
L 363.527622 278.079855 
L 365.471662 268.914968 
L 367.415701 257.853259 
L 369.35974 241.980763 
L 371.303779 271.906977 
L 373.247818 267.815641 
L 375.191857 274.976169 
L 377.135897 269.004279 
L 379.079936 271.880885 
L 381.023975 273.634178 
L 382.968014 267.98794 
L 384.912053 249.837058 
L 386.856093 252.787741 
L 388.800132 278.35305 
L 390.744171 277.901881 
L 392.68821 278.069517 
L 392.68821 278.069517 
" style="fill:none;stroke:#ff7f0e;stroke-linecap:square;stroke-width:1.5;"/>
   </g>
   <g id="patch_9">
    <path d="M 51.800938 283.910437 
L 51.800938 162.950437 
" style="fill:none;stroke:#000000;stroke-linecap:square;stroke-linejoin:miter;stroke-width:0.8;"/>
   </g>
   <g id="patch_10">
    <path d="M 408.920938 283.910437 
L 408.920938 162.950437 
" style="fill:none;stroke:#000000;stroke-linecap:square;stroke-linejoin:miter;stroke-width:0.8;"/>
   </g>
   <g id="patch_11">
    <path d="M 51.800938 283.910437 
L 408.920937 283.910437 
" style="fill:none;stroke:#000000;stroke-linecap:square;stroke-linejoin:miter;stroke-width:0.8;"/>
   </g>
   <g id="patch_12">
    <path d="M 51.800938 162.950437 
L 408.920937 162.950437 
" style="fill:none;stroke:#000000;stroke-linecap:square;stroke-linejoin:miter;stroke-width:0.8;"/>
   </g>
   <g id="legend_2">
    <g id="patch_13">
     <path d="M 297.664688 200.862937 
L 401.920938 200.862937 
Q 403.920938 200.862937 403.920938 198.862937 
L 403.920938 169.950437 
Q 403.920938 167.950437 401.920938 167.950437 
L 297.664688 167.950437 
Q 295.664688 167.950437 295.664688 169.950437 
L 295.664688 198.862937 
Q 295.664688 200.862937 297.664688 200.862937 
z
" style="fill:#ffffff;opacity:0.8;stroke:#cccccc;stroke-linejoin:miter;"/>
    </g>
    <g id="line2d_45">
     <path d="M 299.664688 176.048875 
L 319.664688 176.048875 
" style="fill:none;stroke:#1f77b4;stroke-linecap:square;stroke-width:1.5;"/>
    </g>
    <g id="line2d_46"/>
    <g id="text_31">
     <!-- MiD17_mean -->
     <g transform="translate(327.664688 179.548875)scale(0.1 -0.1)">
      <use xlink:href="#DejaVuSans-77"/>
      <use x="86.279297" xlink:href="#DejaVuSans-105"/>
      <use x="114.0625" xlink:href="#DejaVuSans-68"/>
      <use x="191.064453" xlink:href="#DejaVuSans-49"/>
      <use x="254.6875" xlink:href="#DejaVuSans-55"/>
      <use x="318.310547" xlink:href="#DejaVuSans-95"/>
      <use x="368.310547" xlink:href="#DejaVuSans-109"/>
      <use x="465.722656" xlink:href="#DejaVuSans-101"/>
      <use x="527.246094" xlink:href="#DejaVuSans-97"/>
      <use x="588.525391" xlink:href="#DejaVuSans-110"/>
     </g>
    </g>
    <g id="line2d_47">
     <path d="M 299.664688 191.005125 
L 319.664688 191.005125 
" style="fill:none;stroke:#ff7f0e;stroke-linecap:square;stroke-width:1.5;"/>
    </g>
    <g id="line2d_48"/>
    <g id="text_32">
     <!-- MiD17_wMean -->
     <defs>
      <path d="M 4.203125 54.6875 
L 13.1875 54.6875 
L 24.421875 12.015625 
L 35.59375 54.6875 
L 46.1875 54.6875 
L 57.421875 12.015625 
L 68.609375 54.6875 
L 77.59375 54.6875 
L 63.28125 0 
L 52.6875 0 
L 40.921875 44.828125 
L 29.109375 0 
L 18.5 0 
z
" id="DejaVuSans-119"/>
     </defs>
     <g transform="translate(327.664688 194.505125)scale(0.1 -0.1)">
      <use xlink:href="#DejaVuSans-77"/>
      <use x="86.279297" xlink:href="#DejaVuSans-105"/>
      <use x="114.0625" xlink:href="#DejaVuSans-68"/>
      <use x="191.064453" xlink:href="#DejaVuSans-49"/>
      <use x="254.6875" xlink:href="#DejaVuSans-55"/>
      <use x="318.310547" xlink:href="#DejaVuSans-95"/>
      <use x="368.310547" xlink:href="#DejaVuSans-119"/>
      <use x="450.097656" xlink:href="#DejaVuSans-77"/>
      <use x="536.376953" xlink:href="#DejaVuSans-101"/>
      <use x="597.900391" xlink:href="#DejaVuSans-97"/>
      <use x="659.179688" xlink:href="#DejaVuSans-110"/>
     </g>
    </g>
   </g>
  </g>
 </g>
 <defs>
  <clipPath id="p2878bb3975">
   <rect height="120.96" width="357.12" x="51.800938" y="17.798437"/>
  </clipPath>
  <clipPath id="pa4b0c7b9cd">
   <rect height="120.96" width="357.12" x="51.800938" y="162.950437"/>
  </clipPath>
 </defs>
</svg>
